<svg xmlns="http://www.w3.org/2000/svg" width="297.061" height="57.239" viewBox="0 0 78.598 15.144"><g aria-label="Kevin Whitaker" style="line-height:1.25;-inkscape-font-specification:'Fusterd Brush'" font-weight="400" font-size="25.4" font-family="Fusterd Brush" letter-spacing="0" word-spacing="0" fill="#fff" stroke-width=".265"><path d="M9.423 12.096q0 .102.051.102.076 0 .127.05-.127.382-.482.483 0 .356-.33.61-.077.05-.128.127-.05.076-.152.178l-.076.33-.076.102q-.153.177-.33.33-.153.152-.28.355l-.102.077q-.203.127-.406.203-.203.101-.457.101-.33 0-.635-.025t-.584-.178q-.026-.025-.178-.076-.356-.127-.61-.38-.254-.255-.457-.585-.203-.381-.381-.788-.178-.406-.305-.812-.127-.381-.178-.788-.05-.406-.076-.813-.025-.254-.025-.482v-.508q-.026-.127-.026-.407-.101 0-.152.026l-.254.178q-.05.203-.076.406 0 .178-.026.381-.025.28-.025.559.025.254-.025.533.025.127.025.254v.229q.05.228.025.457 0 .203.051.432v.101q.026.026 0 .077-.076.127-.076.254l.05.254q.077.38 0 .736-.1 0-.126-.025-.254-.127-.432-.483-.229-.533-.305-1.092-.05-.38-.076-.762l-.05-.787v-.178q-.128-.026-.204.025-.05.051-.152.102H1.04q-.228-.026-.482.025 0-.05-.026-.076v-.05-.052q.026-.025.026-.076l.66-1.32q.33-.66.711-1.321.102-.204.178-.305.102-.229.153-.457.152-.585.279-1.143.127-.585.33-1.169.153-.432.28-.838.127-.432.33-.838.127-.534.355-1.016.229-.483.483-.965.05-.102.05-.153-.279.076-.482.254-.178.153-.38.305-.433.305-.763.686-.203.203-.38.406-.179.178-.356.381-.127.229-.28.432-.152.203-.28.432l-.253.457q-.102.229-.229.483-.305.228-.686.228-.101-.025-.152-.05Q.051 5.212 0 5.11q.05-.228.127-.457.076-.254.203-.457.432-.889 1.118-1.626.101-.127.178-.228.076-.102.203-.203.305-.229.559-.458.279-.254.61-.457.558-.33 1.117-.482Q4.699.565 5.359.59q.026 0 .077.051l-.254.076-.127.102.33.127q.152.101.203.178.127.177.05.33l-.152.305q-.05.127-.152.254-.28.38-.483.787-.177.381-.355.813l-.584 1.55v.1q.05.077.076.077.025-.025.076-.05.05-.052.102-.153l.152-.203q.076-.127.203-.204.051-.025.076-.05.026-.051.077-.102.177-.254.38-.432l.458-.355q.101-.077.254-.28.127-.152.254-.28.152-.126.33-.253.229-.153.432-.305.228-.152.482-.28.305-.177.635-.279.33-.101.686-.076.051 0 .076.025.051 0 .127.026l-.101.203-.076.229-.178.127q-.432.177-.788.431-.355.254-.71.534-.331.228-.585.508l-.533.533-.356.407-.381.38q-.025.026-.025.051-.432.56-.89 1.118-.431.533-.812 1.118-.076.127-.153.228-.05.102-.076.229 0 .05-.025.101 0 .026.05.077.153 0 .28-.077.152-.076.28-.127.304 0 .634.127.153.102.178.204.127.355.102.66l-.076 1.575q0 .178.025.355.025.153.025.356 0 .28.051.559.051.254.127.533.102.28.178.534.102.254.229.508.076.203.203.38.127.178.254.33.076.102.152.153.102.076.203.127.33.153.585-.025.279-.178.482-.407.203-.203.407-.431.406-.432.736-.89.076-.1.127-.203.076-.101.127-.228.178-.305.356-.432l.05.229q0 .025.026.025.025 0 .025-.025.051-.026.051-.077l.051-.101-.203-.076.05-.102.61-.838q0 .025.076-.05.051.05.051.1 0 .128-.076.28-.152.127-.203.178-.051.05-.102.178.229-.077.33-.356.077 0 .153.025.076.026.127.127-.026.204-.178.356-.152.127-.229.28zM2.54 10.852q.05-.153-.076-.33l-.102 1.346q0 .05.026.05.025 0 .05.026.127-.229.077-.559-.051-.305.025-.533z"/><path d="M9.654 11.792q.457-.102.762-.458l.457-.406q.127-.102.203-.203.102-.127.178-.254l.432-.635q.05-.102.102-.178.076-.102.152-.178l.102-.203q.05-.102.152-.152.025 0 .076-.127.051-.204.153-.356.127-.152.177-.356 0-.05.026-.076.025-.025.05-.076.026-.05.051-.05.026-.026.026-.052-.026-.152.05-.254.102-.101.153-.228l.381-.762.483-.915.152-.228q.127-.05.203.025-.025.356-.05.56-.026.177-.153.38l-.508 1.092-.229.356-.101.254q-.026.127.05.28 0 .025.026.025.102-.204.178-.407.101-.228.228-.432.051-.152.102-.101.025.025.025.152-.05.102-.076.203 0 .077-.025.153l-.051.178q-.152.177-.229.38-.076.204-.177.407l-.94 1.575q-.203.33-.432.584-.229.254-.508.508-.203.178-.432.28-.228.101-.482.177-.153.051-.356 0-.356-.076-.66-.203-.305-.127-.585-.38-.05-.052-.101-.077-.026-.026-.051-.076-.305-.381-.483-.788-.203-.432-.228-.94 0-.279.025-.533.026-.254.102-.533.05-.229.127-.458.05-.254.127-.482.05-.076.076-.153 0-.076.05-.127.331-.61.636-1.092.152-.254.355-.508l.407-.533q.305-.407.838-.457.127-.026.229-.026.127-.025.254-.076.127-.05.304.025.077.051.153.127.076.051.127.153.127.152.127.355.025.178.152.356-.025.152-.025.305 0 .152-.051.305l-.102.254q-.025.127.026.28 0 .05-.051.126-.025.076-.076.152-.127.28-.28.585-.127.28-.33.558-.05.102-.05.127-.102.33-.33.534-.23.203-.483.406l-.356.254-.305.051h-.28q-.202.05-.355-.05-.076-.077-.152-.026-.051.28-.026.61.051.304.153.61.127.278.305.532.177.23.406.33zm-.762-2.54q.05 0 .076.025.026 0 .076-.025.33-.077.585-.381.203-.204.38-.407.178-.228.33-.457.23-.33.407-.66.203-.33.381-.686.076-.203.102-.356.05-.178-.076-.38v-.128q-.026-.05-.051-.05l-.051-.051-.254.203q-.102.101-.203.228l-.254.254q-.127.102-.229.23-.28.355-.533.71-.229.33-.381.737-.102.28-.203.533-.077.254-.127.534-.026.025.025.127z"/><path d="M17.984 5.365q.05.33 0 .66-.026.306-.077.636-.05.203-.127.38l-.152.356-.406.864q-.204.406-.458.813l-.482.762q-.254.305-.61.559-.203.076-.355.05-.153-.025-.33-.101l-.712-.33q-.178-.077-.28-.254-.33-.458-.279-1.093 0-.304.051-.584.051-.305.026-.61-.026-.076.025-.228.076-.203.127-.432.025-.228.076-.432l.305-1.092q0-.05.05-.101.102-.127.23-.102.406.076.66.305l.076.33q-.203.432-.305.864-.101.431-.228.863-.077.33-.127.686-.051.33-.051.686 0 .482.127.838.127.28.33.076.432-.38.66-.787.026-.05.026-.076 0-.051.05-.077.255-.279.382-.61.152-.355.355-.685.051-.076.076-.178.026-.101.077-.178.203-.33.254-.685.076-.381.177-.737.026-.025.026-.127 0-.102-.026-.305v-.406q0-.229-.025-.432 0-.203-.025-.33-.077 0-.204-.178-.101-.203-.203-.229 0-.05-.025-.101V3.51q0-.203.203-.254.178-.05.508.076.33.127.406.305.051.051.102.203zM21.705 8.134q.152.05.127.152l-.229.788q.025.101-.127.457-.127.33-.33.711-.178.381-.356.737-.178.33-.203.432-.076.203-.178.38-.076.178-.203.382-.203.228-.406.304-.254.051-.458 0-.177-.076-.355-.177l-.305-.204q-.127-.279-.178-.558-.076-.305-.076-.61v-.483q-.025-.254.025-.508.026-.05.026-.076-.026-.05-.026-.101v-.077q-.025-.05 0-.101.077-.178.077-.356-.026-.178.025-.355 0 .025.05.025h.026q.076.076.026.076-.051.203-.026.381v.356q-.025.203-.025.38v.382q0 .178.05.254.026-.076.026-.254v-.305q-.025-.33.025-.635l.102-.61q.05-.203.05-.38.026-.178.052-.382-.051-.076-.127-.152-.051-.102-.102-.152-.025-.28.102-.508.127-.229.177-.483.051-.28.153-.508.101-.254.203-.533l.152-.458q.077-.254.178-.482.127-.178.33-.076.28.101.585.355.152.102.101.33-.127.381-.355.813-.33.737-.56 1.524-.202.762-.33 1.575-.1.533-.1 1.067 0 .508.024 1.041 0 .026.051.076.076.077.127-.05.076-.102.305-.432.229-.356.483-.737.254-.38.457-.71.228-.331.305-.458l.533-.89q.025-.05.05-.075l.052-.102zm-.051-5.613q.127.101.178.254.05.152-.026.304-.101.204-.228.381-.102.178-.305.305l-.102.051q-.025.025-.076.025-.203.026-.406.153-.127.076-.254-.102-.026-.432.101-.787.127-.356.229-.711.127-.102.228-.102.127 0 .254.05.102.026.204.077l.203.102zm-2.972 8.839v-.305h-.025v.28q0 .025.025.025zM27.955 6.585v.101q-.101.356-.228.711-.102.356-.305.66-.178.255-.254.585-.025.076-.076.152-.026.077-.05.178-.103.28-.204.534-.102.254-.229.533-.178.432-.559.356-.127-.026-.228-.026-.102-.025-.203-.076-.127-.05-.229-.102-.076-.05-.178-.101-.254-.127-.28-.381-.05-.28-.075-.534 0-.254.025-.533.05-.406.127-.787.076-.407.076-.813v-.203q-.152.076-.203.127-.38.355-.686.787-.305.432-.559.89l-.61 1.117q-.075.152-.177.254l-.203.228q-.33.076-.559-.076l-.457-.305.05-.457q0-.229.051-.457.077-.508.178-.99.102-.483.229-.991l.355-1.423q.077-.28.153-.533.076-.254.203-.534.28-.076.508-.05.229.05.381.203.178.127.203.432-.178.38-.355.787-.153.381-.305.787-.127.28-.203.585-.077.28-.178.558-.026.077-.026.23.077 0 .102-.026l.356-.483.28-.356.202-.254q.153-.203.305-.38.152-.178.356-.356.203-.153.38-.254.204-.127.483-.153l.534.23q.127.05.152.126.05.076.102.178.076.28.025.584-.05.33-.127.66-.076.305-.127.635-.076.305-.127.61-.05.305-.05.635 0 .178.075.254l.102-.05q.203-.28.381-.56.203-.279.356-.584.203-.355.406-.66l.406-.66.407-.509zM21.961 8.87q.076-.153.076-.204 0-.05-.05-.203l-.077.381.051.026zM45.013 1.962q.051.28.051.559.025.28-.025.558-.051.204-.051.381 0 .178-.051.381l-.508 2.032-.203.788-.381 1.194q-.051.127-.102.228-.05.102-.101.229-.127.355-.254.686-.102.304-.229.66 0 .05-.025.102v.076q-.026.178-.102.33-.076.152-.127.305l-.406.686q-.102.203-.178.406-.076.178-.203.356-.432.787-1.27.889-.381.05-.737-.026-.33-.076-.66-.203-.153-.05-.254-.178-.102-.127-.178-.254-.254-.38-.33-.736-.153-.635-.229-1.194l-.05-.305q-.052-.203-.102-.356l-.102.077-.635 1.574-.457 1.118q-.127.356-.356.508l-.076.127q-.127.229-.33.356-.203.101-.457.152-.28.076-.56 0-.253-.102-.507-.229-.305-.127-.356-.533l-.101-.635v-.178-.127q.025-.076 0-.127-.051-.127-.051-.203l.05-.203q.026-.127.026-.254t-.127-.254q.127-.508.127-.94 0-.102.025-.152.077-.204.051-.407v-.203q.026-.102.051-.229.05-.203.05-.38.026-.204.179-.382.076-.076.025-.127-.05-.127-.025-.254.025-.152.076-.279.127-.483.254-.94.152-.457.305-.94.152-.38.279-.762.152-.38.28-.762.101-.254.203-.482.127-.254.304-.457.305-.229.585-.153l.254.102q.127.05.177.228v.356q-.279.305-.457.635-.152.305-.28.66l-.304.762-.254.762q-.28.89-.508 1.778-.229.89-.33 1.804-.051.508-.076 1.041 0 .508.025 1.016l.05.407q.052.203.179.406.101.025.177-.05l.305-.433.254-.558.254-.56q.153-.38.33-.761.178-.381.305-.813.127-.432.28-.838.177-.407.33-.838.127-.33.228-.635.127-.305.254-.635l.153-.381q.05-.127.101-.229.051-.102.051-.229.026-.279.33-.406.127-.05.204-.025.177.05.304-.026.178-.05.381.127.102.33-.05.66-.153.483-.254.991-.102.483-.127.99l-.051.509q0 .228.05.482.051.483.102.991.051.483.178.965.152.508.406.94.127.203.28.305.203.127.355-.026.204-.177.381-.431.153-.204.204-.305.203-.432.431-.813.229-.406.356-.864.203-.38.33-.787.127-.406.305-.813.127-.28.203-.559.076-.279.178-.558.127-.432.229-.839.127-.406.203-.838l.101-.28q.051-.202.102-.38.076-.203.102-.432 0-.05.025-.127.025-.076.025-.127.077-.305.127-.61.077-.304.077-.635l.05-.254q.026-.228 0-.457 0-.228-.076-.432-.05-.254-.101-.38-.305-.255-.737-.483-.05-.026-.102-.05-.05-.026-.101-.026-.28-.026-.559-.026h-.533q-.33 0-.56.127l-.279.076-.101-.127q0-.127.127-.127Q42.092.362 43.159.54l.457.102q.229.025.457.127.229.127.407.254.482.33.533.94zm-.406 1.244q.05-.254.05-.482v-.508l-.076-.356-.076-.076q0 .127-.025.229v.584q-.026.101-.026.203.026.102 0 .203l-.076.407-.101.38q0 .128-.102.178-.076.026-.076.153 0 .101-.051.203-.05.076-.102.203.026.127-.025.305-.025.152.076.33l-.152.534q-.203.025-.254.28-.026.126-.076.278-.026.127.05.28 0 .127-.025.228 0 .102-.076.178-.076 0-.127-.025 0 .101-.051.203 0 .05-.025.102l-.051.101q0 .076-.026.153-.025.05.026.127.05.05 0 .101-.051.026-.051.076.05.102.025.204 0 .101.026.203.152-.076.152-.28.026-.127.076-.254.077-.127.102-.254l.178-.508q.05-.228.127-.431.101-.204.101-.432 0-.102.026-.127.127-.28.178-.559l.152-.559q.05-.203.076-.355.026-.178.076-.356.127-.33.127-.66v-.102q.026-.05.026-.102zM43.108 8.54q.076-.076.076-.152.026-.076.026-.152-.051.076-.153.076-.101 0-.152.101l-.05.178q-.026.051-.077.127l-.05.102q-.052.127.075.178zm-5.08.23v-.306q-.152.051-.178.051 0 .05-.025.102v.152zM51.508 8.21q.203 0 .254.127-.076.28-.127.432-.05.152-.076.28-.026.101-.026.228.026.102.026.28l-.203.406q-.102.178-.229.38-.127.179-.203.382-.051.178-.127.38-.051.052-.051.153 0 .076.025.153.051.431-.152.762-.076.127-.127.28l-.102.253q-.228.559-.762.89l-.558-.077q-.127-.026-.229-.102-.102-.076-.178-.127-.152-.101-.178-.254 0-.178-.076-.33-.05-.178-.127-.305 0-.05.026-.05l.05-.128q.026.026.051.026.026 0 .026.025h.025l.05.076.102.127.026-.838q.05-.05 0-.127-.051-.28 0-.533.076-.28.127-.559l.228-1.245v-.152q.026-.076 0-.152-.101-.026-.254-.153 0-.101-.05-.203.05-.05.076-.05.025 0 .05-.026l.102-.178.051-.356q.05-.177.025-.33-.025-.076 0-.152.051-.076.051-.153-.05-.177-.152-.177-.153.101-.254.228-.102.127-.229.254l-.482.711q-.33.508-.61 1.067-.28.534-.483 1.118-.05.406-.203.787-.127.381-.178.737-.076.152-.203.101l-.305-.076-.228-.228q-.051-.026-.127 0-.076.025-.127-.077v-.076l.076-.736.152-.127-.101-.102q-.026-.356.076-.711.076-.381.178-.737l.152.28q-.05.177-.152.38-.076.178-.051.382.102 0 .102-.051l.127-.28q.127-.304.177-.61l.102-.66q.025-.254.076-.457.051-.228.102-.482.101-.33.152-.635.051-.33.178-.66.05-.102.05-.179v-.177q.077-.204.102-.407.051-.203.127-.38.178-.33.204-.636l-.153-.178.026-.203q.101-.28.152-.559.05-.304.102-.584.05-.203.025-.254 0-.076-.05-.28l.279-1.295.025-.152q.05-.229.305-.229.203.051.38.127.204.077.331.254.076.077.076.23l-.025.253-.203.711q-.077.356-.204.711-.05.051 0 .077-.025.304-.152.584-.102.28-.178.559-.05.28-.127.558-.05.254-.127.534-.05.127-.101.28l-.102.253q-.025.026-.025.051.025.025 0 .025-.077.23-.153.61-.05.381-.101.686.076 0 .127-.026.431-.533.863-1.016.178-.152.356-.279.178-.127.406-.178.178-.076.356-.025l.203.101q.254.077.356.305l.05.203q.026.077.026.153v.406q0 .178-.051.381-.076.356-.152.737-.077.355-.204.711-.05.203-.076.406-.025.178-.076.381-.076.28-.152.585-.051.28-.102.584-.127.787-.05 1.473.025.076.05.178.025.076.025.178.077 0 .127-.077.127-.05.153-.177.28-.534.559-1.093.304-.558.431-1.168l.204-.762q.025-.178.228-.305.178-.076.203-.228l.127-.33q.051-.102.102-.178.05-.077.127-.153zm-3.175 2.337q.025.05 0 .102l-.05.101-.026.026q0-.026-.026-.026v-.05q0-.128.102-.153z"/><path d="M54.298 8.134q.152.05.127.152l-.229.788q.026.101-.127.457-.127.33-.33.711-.178.381-.355.737-.178.33-.204.432-.076.203-.177.38-.077.178-.204.382-.203.228-.406.304-.254.051-.457 0-.178-.076-.356-.177l-.305-.204q-.127-.279-.177-.558-.077-.305-.077-.61v-.483q-.025-.254.026-.508.025-.05.025-.076-.025-.05-.025-.101v-.077q-.026-.05 0-.101.076-.178.076-.356-.025-.178.025-.355 0 .025.051.025h.026q.076.076.025.076-.05.203-.025.381v.356q-.026.203-.026.38v.382q0 .178.051.254.025-.076.025-.254v-.305q-.025-.33.026-.635l.101-.61q.051-.203.051-.38.026-.178.051-.382-.05-.076-.127-.152-.05-.102-.102-.152-.025-.28.102-.508.127-.229.178-.483.05-.28.152-.508.102-.254.203-.533l.153-.458q.076-.254.178-.482.127-.178.33-.076.28.101.584.355.152.102.102.33-.127.381-.356.813-.33.737-.559 1.524-.203.762-.33 1.575-.102.533-.102 1.067 0 .508.026 1.041 0 .026.05.076.077.077.128-.05.076-.102.304-.432.23-.356.483-.737.254-.38.457-.71.229-.331.305-.458l.533-.89q.026-.05.051-.075l.051-.102zm-.05-5.613q.126.101.177.254.05.152-.025.304-.102.204-.229.381-.102.178-.305.305l-.101.051q-.026.025-.077.025-.203.026-.406.153-.127.076-.254-.102-.025-.432.102-.787.127-.356.228-.711.127-.102.229-.102.127 0 .254.05.101.026.203.077.102.05.203.102zm-2.973 8.839v-.305h-.025v.28q0 .025.025.025z"/><path d="M56.739 3.714l-.076.204q-.077.203-.178.431-.076.204-.153.483.229-.127.407-.203.203-.102.406-.153.33-.177.762-.254-.05.127-.076.127l-.432.305-.127.28q-.076.304-.406.508-.305.152-.66.431l-.305.23-.305 1.066q-.127.406-.178.813-.05.406-.152.838-.127.432-.077.889.051.432.178.863.051.204.203.28.254-.026.483-.305l.305-.356q.152-.177.28-.38.126-.28.279-.509.152-.228.304-.508l.077-.203q.127-.432.33-.787.203-.356.432-.711h.05q0-.026.026-.026l.05.026-.177.889q0 .101-.102.304l-.305.712-.127.304.102.127q.102.102.05.254l-.152.356q-.076.152-.203.305-.152.101-.178.203-.101.203-.254.356l-.254.254q-.101.101-.304.203-.458.203-.864-.026l-.254-.152q-.127-.076-.28-.127-.177-.076-.304-.33-.203-.457-.28-.915-.05-.279.026-.482l.025-.229.254-.152q.051-.153.076-.305.051-.152.051-.305-.05-.305.102-.482l-.026-.127q0-.127.026-.178.101-.203.127-.407.025-.228.076-.482-.229 0-.356-.05-.101.024-.304-.077l-.407-.153v-.05q-.025-.051-.025-.077 0-.076.076-.127.33-.025.635-.304.254-.153.305-.204.076-.076.228-.279.051 0 .077.025.05 0 .101-.025.102 0 .102-.102.152-.406.228-.736l.127-.356.33-.863-.177-.178v-.05l.228-.585q.051-.127.077-.28.025-.152.076-.279.127-.356.254-.66l.254-.66q.203-.179.432-.052l.355.204q.178.127.203.228.051.076 0 .28-.025.076-.076.152-.025.076-.025.152l-.178.33q-.203.407-.381.839-.152.406-.381.762l-.05.152q0 .026-.026.051v.025z"/><path d="M63.437 8.286q.051.077 0 .153-.05.076-.152.152-.076.076-.178.153-.102.076-.127.152-.102.178-.127.356l-.05.355q0 .178-.052.33-.05.153-.203.305-.178.178-.28.356l-.253.355q-.153.153-.305.178-.127.026-.38.127-.052-.101-.052-.178l-.152-.05q-.05-.026-.127-.077-.076-.05-.153-.05-.076-.026-.127-.077-.203-.127-.228-.33 0-.101-.05-.355-.052.025-.077.025-.026 0-.05.025l-.23.33-.152.28q-.127.178-.28.33-.152.153-.355.203-.076 0-.127.051-.559.305-1.118-.05l-.152-.077q-.533-.33-.61-.965v-.28q-.025-.152-.025-.279 0-.482.127-.762.127-.355.28-.71.126-.382.33-.738.228-.38.457-.736.228-.356.508-.711.025-.026.025-.051.203-.254.356-.483.178-.228.432-.406.101-.05.152-.178.127-.28.508-.406.203-.077.381-.102.203-.025.406-.025.28 0 .56.28.152.1.177.228.152.38.381.685.05.28-.076.635-.28.66-.508 1.347-.229.66-.407 1.371-.05.203-.076.381-.025.178 0 .381.026.178 0 .356 0 .178.051.38.05-.025.076-.025.026 0 .051-.025.254-.203.406-.457.153-.254.305-.534.026-.025.026-.127.025-.127.05-.228.026-.127.127-.229l.33-.355q.026-.127 0-.229-.025-.127.102-.178.051-.025.178-.101.127-.102.178-.153.127-.127.127-.101 0 .025.127.076.127.127.076.254-.025.101-.05.228zM61.151 5.62q.026-.127 0-.279 0-.102-.127-.102-.101.051-.203.153-.102.127-.203.228-.102.102-.203.23-.254.253-.508.532-.229.254-.432.56l-.584.863-.305.559q-.153.254-.28.533-.127.381-.203.787-.05.381.026.813.05.127.076.254.05.127.178.28.152-.204.304-.305.153-.127.254-.33l.254-.458.254-.457q.127-.203.254-.432.127-.228.23-.457.024-.178.202-.355.102-.204.127-.33l.153-.458.482-1.067.102-.203zm-.965 2.998q.05.025.076-.026.026-.05 0-.101 0-.051-.076-.051-.05.05-.05.101-.026.026 0 .051.025.026.05.026z"/><path d="M68.945 8.464q.076.153 0 .254-.101.178-.178.356-.05.178-.177.305-.051.05-.026.127.026.076-.025.127-.102.152-.102.254-.101.558-.508.99l-.508.61q-.254.305-.533.61-.28.304-.737.304-.203 0-.33-.101-.432-.229-.838-.534-.127-.05-.203-.152-.051-.127-.127-.254-.051-.127-.102-.229-.05-.127-.178-.228h-.559l-.101.101-.254.508q-.102.254-.178.534-.025.203-.127.431-.025.102-.102.127-.101.026-.177-.025l-.026-.025q-.228-.28-.457-.381-.178-.051-.127-.254 0-.102.025-.127.077-.356.178-.686.076-.356.178-.711l.05-.102.052-.152.177.076q.102-.076.178-.178t.153-.229q.05-.127.076-.254.05-.152.152-.279 0-.152.076-.28.077-.152.127-.304V8.59q.026-.076 0-.127-.05-.127 0-.254.051-.127.127-.254l.051-.101q.026-.077.026-.153.025-.178.025-.355.025-.178.102-.33.025-.051 0-.077V6.84v-.127q.076-.127.05-.28 0-.152.051-.305.127-.127.127-.279 0-.152.05-.305v-.178l.077-.203q.05-.05.076-.101.051-.077.051-.178-.025-.076.026-.127.05-.076.076-.153.101-.355.228-.685.153-.356.33-.686l.153-.381q.025-.026.025-.153h-.101q-.102.204-.229.407-.127.203-.178.432-.05.152-.101.203-.254.432-.407.94l-.152.406q-.05.178-.178.381-.101.127-.101.381l-.077-.076q-.025-.127 0-.229.051-.127.077-.254.152-.533.33-1.016.203-.508.432-1.016.584-1.219 1.371-2.26.381-.458.788-.737.558-.406 1.219-.178.508.178.686.61.228.406.177.914-.076.584-.304 1.118-.23.508-.585.965l-.254.356q-.101.177-.254.33l-1.066 1.194q-.483.482-1.067.508-.153.05-.305-.077-.127-.127-.28-.101 0 .025-.025.05-.025 0-.025.026l-.203 1.118q-.102.558-.23 1.117v.026q.026 0 .026.025l.305-.178q.026-.025.026-.05.025-.026.076-.051.101-.077.178-.153.076-.101.177-.152.178-.127.33-.203l.356-.153q.584-.178.99.254.179.203.255.432.076.203-.026.483-.076.177-.177.33-.077.152-.254.28l-.737.71q-.178.178-.356.305-.177.127-.406.229-.076.025-.127.05-.05.026-.127.077.05.127.152.203.127.076.204.203l.279.407.102.254q.076.101.177.203.28-.153.508-.356.229-.203.432-.432.102-.127.229-.228.127-.127.203-.254.102-.127.203-.229l.203-.254.458-.533.406-.457q.127-.153.254-.28.127-.127.33-.254zm-4.013-3.276l-.05.304q.126-.05.177-.05.076 0 .127-.051.152-.127.305-.229.152-.127.28-.254.583-.584 1.168-1.244.228-.28.406-.585.076-.254.28-.457.126-.152.203-.406.076-.178.152-.534.076-.38.076-.584 0-.127-.025-.228 0-.102-.076-.204l-.153.051-.355.254q-.127.102-.23.203-.1.077-.202.204-.203.203-.381.457l-.305.457q-.483.66-.813 1.397-.33.737-.584 1.499zm-.635 5.003q.203-.127.38-.254l.407-.304q.458-.381.813-.94.153-.254.229-.584 0-.026-.026-.026v-.05q-1.295.787-1.93 2.133.102.05.127.025zm-.686-3.403h.026v.025l.076.305-.127.584q-.026.076-.026.153 0 .05-.05.101-.127.203-.178.432l-.051.457V9.1q-.025.102-.05.229l-.28.28q-.051-.128.025-.179.076-.076.026-.177-.051-.102 0-.178.05-.102.076-.203l.076-.356.305-1.168q.05-.127.05-.254.026-.153.128-.28zm.254-.483q0 .127-.178.076 0-.203.127-.279.102.025.077.102 0 .05-.026.101zm1.702-4.242v.102q.254-.152.254-.406-.05.076-.127.152-.076.05-.127.152zm-1.778 4.7q-.025.101-.152.025 0-.05-.026-.076 0-.051.05-.102.179.025.128.152zm4.521-5.589q-.101.102-.05.305z"/><path d="M69.582 11.792q.457-.102.762-.458l.457-.406q.127-.102.204-.203.101-.127.177-.254l.432-.635q.05-.102.102-.178.076-.102.152-.178l.102-.203q.05-.102.152-.152.026 0 .076-.127.051-.204.153-.356.127-.152.178-.356 0-.05.025-.076.025-.025.05-.076.026-.05.052-.05.025-.026.025-.052-.025-.152.05-.254.102-.101.153-.228l.381-.762.483-.915.152-.228q.127-.05.203.025-.025.356-.05.56-.026.177-.153.38l-.508 1.092-.228.356-.102.254q-.025.127.05.28 0 .025.026.025.102-.204.178-.407.102-.228.229-.432.05-.152.101-.101.026.025.026.152-.051.102-.077.203 0 .077-.025.153l-.05.178q-.153.177-.23.38-.076.204-.177.407l-.94 1.575q-.203.33-.432.584-.228.254-.508.508-.203.178-.432.28-.228.101-.482.177-.153.051-.356 0-.355-.076-.66-.203-.305-.127-.584-.38-.051-.052-.102-.077-.025-.026-.05-.076-.306-.381-.483-.788-.204-.432-.23-.94 0-.279.026-.533t.102-.533q.05-.229.127-.458.05-.254.127-.482.05-.076.076-.153 0-.076.05-.127.331-.61.636-1.092.152-.254.356-.508l.406-.533q.305-.407.838-.457.127-.026.229-.026.127-.025.254-.076.127-.05.305.025.076.051.152.127.076.051.127.153.127.152.127.355.025.178.152.356-.025.152-.025.305 0 .152-.05.305l-.102.254q-.026.127.025.28 0 .05-.05.126-.026.076-.077.152-.127.28-.28.585-.126.28-.33.558-.05.102-.05.127-.102.33-.33.534-.23.203-.483.406l-.356.254-.305.051h-.28q-.202.05-.355-.05-.076-.077-.152-.026-.05.28-.025.61.05.304.152.61.127.278.305.532.178.23.406.33zm-.762-2.54q.05 0 .076.025.026 0 .077-.025.33-.077.584-.381.203-.204.38-.407.179-.228.33-.457.23-.33.407-.66.204-.33.381-.686.077-.203.102-.356.05-.178-.076-.38v-.128q-.026-.05-.051-.05l-.05-.051-.255.203q-.101.101-.203.228l-.254.254q-.127.102-.229.23-.28.355-.533.71-.229.33-.381.737-.102.28-.203.533-.076.254-.127.534-.026.025.025.127z"/><path d="M73.492 10.395q-.05 0-.05.025-.026 0-.077-.025v-.051q-.025-.026 0-.076 0-.127.026-.28.025-.152 0-.305-.051-.025.025-.152.076.076.076.178v-.33-.229q0-.127.026-.254.025.102.152.178.076-.153 0-.33-.102.05-.127.05 0-.05.025-.076v-.076q.051-.457.153-.914.076-.458.152-.94l.102-.534q0-.05.025-.101 0-.178.05-.28.052-.101.052-.152 0-.203.025-.305 0 .178.153.229.076-.153 0-.33-.102.05-.153.05.05-.304.102-.584.05-.305.101-.635l.102-.152q.229-.05.38.025.179.076.331.203.305.204.229.508-.051.077-.076.178 0 .102-.026.203 0 .077.076.102l.102-.076.254-.305q.127-.178.152-.28l.077-.152q.025-.05.076-.127.05-.076.203-.228l.483-.407q.228-.254.61-.254.177.051.304.153.127.076.178.228.05.153-.026.28-.127.152-.203.482-.076.305-.05.686.05.356.228.686.203.305.635.457l.229.28q-.026.05-.051.126 0 .051-.076.102-.077-.025-.305-.076-.229-.05-.483-.102-.254-.05-.482-.101-.23-.077-.305-.127-.33-.229-.356-.585-.05-.152-.05-.304 0-.153-.026-.356-.203.152-.28.33-.126.203-.279.407-.127.203-.228.431-.127.305-.254.585-.127.28-.23.584-.202.61-.304 1.117-.076.432-.178.839-.076.406-.177.838l-.077.28q-.076.1-.254.05l-.71-.33zM74 9.074q0-.203.026-.432.025-.229-.102-.432-.076.127-.025.153.025.152 0 .304-.026.153-.026.28-.025.05 0 .076v.05l.05.026q.026-.025.077-.025zm.178-1.32q.076-.153 0-.331l-.102.05v-.025L74 7.372q-.101.025-.101.102 0 .05-.026.076h.076q.051 0 .077-.026 0 .178.152.23zm.05-.534q.077-.127.077-.254.025-.153 0-.28-.05.102-.076.254-.026.127-.076.28l.05.025q.026 0 .026-.025zm.102-2.109q.077-.127.077-.254.025-.152 0-.279-.051.102-.077.254-.025.127-.076.28l.05.025q.026 0 .026-.026zm-.61 3.43q.077-.128.102-.255 0-.152-.025-.279-.05.102-.076.254-.026.127-.076.28l.05.025q.026 0 .026-.026zm.102-.839q.077-.076 0-.178-.076.102 0 .178zm.508-1.32q.077-.077 0-.178-.076.101 0 .177zm.102-2.109q.076-.076 0-.178-.076.102 0 .178zm-.305 2.413q0 .051-.025.102v.101q.05-.05.025-.203zm-.584 2.108h-.025v.102q0-.025.025-.025v-.077z"/></g></svg>