<svg xmlns="http://www.w3.org/2000/svg" width="630" height="123"><defs><style>.cls-1 { fill: #fff; fill-rule: evenodd; }</style></defs><path id="Kevin_Whitaker" d="M77.7 95.4a4.34 4.34 0 0 0 1.43-2.75 1.87 1.87 0 0 0-1-1 3.9 3.9 0 0 0-1.23-.2 4.3 4.3 0 0 1-2.65 2.83 4.34 4.34 0 0 1 .82-1.42q.4-.4 1.62-1.42a5.06 5.06 0 0 0 .6-2.24 1.18 1.18 0 0 0-.4-.82c-.4.4-.6.55-.6.4l-4.9 6.72-.4.8 1.63.62a3.92 3.92 0 0 0-.3.82.9.9 0 0 1-.5.6.2.2 0 0 1-.42 0l-.4-1.83a11.02 11.02 0 0 0-2.85 3.47 11.7 11.7 0 0 1-.9 1.83q-.52.82-1.13 1.63a71.6 71.6 0 0 1-5.9 7.12q-1.63 1.83-3.25 3.56a20.24 20.24 0 0 1-3.87 3.16 4.44 4.44 0 0 1-4.68.2 11.63 11.63 0 0 1-1.52-.9 6.13 6.13 0 0 1-1.32-1.34q-1.02-1.22-2.04-2.64a13.04 13.04 0 0 1-1.63-3.05 34.1 34.1 0 0 1-1.7-4.07q-.73-2.03-1.54-4.27-.6-2.25-1.02-4.38a23.13 23.13 0 0 1-.4-4.38 19.8 19.8 0 0 0-.2-2.95 17.9 17.9 0 0 1-.2-2.75l.6-12.6a12.67 12.67 0 0 0-.8-5.3 3.1 3.1 0 0 0-1.44-1.62 14.17 14.17 0 0 0-5.1-1.02A20 20 0 0 0 28 67.24a4.82 4.82 0 0 1-2.34.6.72.72 0 0 1-.3-.7 2.28 2.28 0 0 0 .1-.72 5.38 5.38 0 0 1 .7-1.82c.34-.54.72-1.15 1.13-1.83a106.67 106.67 0 0 1 6.6-9.05q3.56-4.37 7.02-8.85a.6.6 0 0 1 .2-.4q1.62-1.63 3.04-3.16T47 38.13q2.24-2.23 4.27-4.37a29.9 29.9 0 0 1 4.68-3.97q2.84-2.24 5.7-4.27a31.38 31.38 0 0 1 6.3-3.46l1.42-1.02.6-1.83.83-1.62q-.6-.2-.92-.3a2.3 2.3 0 0 0-.7-.1 14.98 14.98 0 0 0-5.5.6 24.3 24.3 0 0 0-5.08 2.24 29.04 29.04 0 0 0-3.77 2.24q-1.73 1.22-3.56 2.44a27.9 27.9 0 0 0-2.54 2.03A22.36 22.36 0 0 0 46.6 29a11.64 11.64 0 0 1-2.04 2.23q-1.83 1.42-3.56 2.85a17.26 17.26 0 0 0-3.15 3.45 4.78 4.78 0 0 0-.6.72 1.53 1.53 0 0 1-.62.5A5 5 0 0 0 35 40.28c-.4.6-.8 1.2-1.22 1.73a4.78 4.78 0 0 1-.8 1.23l-.62.3c-.14.07-.34-.1-.6-.5v-.82l4.66-12.4q1.42-3.46 2.95-6.6a39.74 39.74 0 0 1 3.77-6.2 10.2 10.2 0 0 0 1.32-2.15c.33-.74.7-1.52 1.12-2.33a2.46 2.46 0 0 0-.4-2.65 6.03 6.03 0 0 0-1.64-1.42L40.9 7.43l1.02-.8L43.95 6a1.16 1.16 0 0 0-.6-.4 31.14 31.14 0 0 0-9.87 1.12 39.28 39.28 0 0 0-9.05 3.96 32.6 32.6 0 0 0-4.78 3.56Q17.5 16.18 15.07 18a9.23 9.23 0 0 0-1.63 1.63c-.4.55-.88 1.16-1.42 1.83a53.02 53.02 0 0 0-8.95 13.02 15.45 15.45 0 0 0-1.63 3.56Q.84 39.98.42 41.8a1.96 1.96 0 0 0 .92 1.02 10.04 10.04 0 0 0 1.32.4 8.92 8.92 0 0 0 5.5-1.82l1.92-3.86q.92-1.84 1.94-3.67a30.23 30.23 0 0 1 2.23-3.46 30.38 30.38 0 0 0 2.24-3.44q1.4-1.63 2.84-3.16t3.05-3.15a33.74 33.74 0 0 1 6.1-5.5q1.62-1.2 3.14-2.53a9.44 9.44 0 0 1 3.77-1.93 3.12 3.12 0 0 1-.4 1.2q-2.04 3.87-3.86 7.73a41.24 41.24 0 0 0-2.85 8.14 41.76 41.76 0 0 0-2.66 6.6q-1.02 3.37-2.23 6.82a82.4 82.4 0 0 0-2.64 9.25q-1.02 4.57-2.23 9.25a19.64 19.64 0 0 1-1.22 3.66 16.66 16.66 0 0 0-1.42 2.44q-3.05 5.3-5.7 10.58T4.9 86.96a.8.8 0 0 1-.1.5.8.8 0 0 0-.1.5.87.87 0 0 0 .1.42 1.44 1.44 0 0 1 .1.6 15.44 15.44 0 0 1 3.86-.3c1.22.07 2.44.1 3.66.1a7.43 7.43 0 0 0 1.33-.8 1.82 1.82 0 0 1 1.52-.2v1.4q.2 3.06.4 6.2t.62 6.2a33.66 33.66 0 0 0 2.43 8.76 8.14 8.14 0 0 0 3.46 3.86 1.62 1.62 0 0 0 1 .2 14.4 14.4 0 0 0 0-5.9 20.28 20.28 0 0 1-.3-2.03 3.25 3.25 0 0 1 .5-2.04.94.94 0 0 0 .1-.7 2.2 2.2 0 0 1-.1-.72 12.7 12.7 0 0 1-.3-3.55 12.96 12.96 0 0 0-.3-3.56v-1.93a10.04 10.04 0 0 0-.2-1.93 19.4 19.4 0 0 0 .3-4.37 31.14 31.14 0 0 1 .1-4.38q.2-1.63.3-3.16a17.66 17.66 0 0 1 .52-3.15l2.04-1.44a2.86 2.86 0 0 1 1.22-.2 18.3 18.3 0 0 0 .2 3.26v3.96a39.47 39.47 0 0 0 .2 3.97q.2 3.26.6 6.5a32.47 32.47 0 0 0 1.43 6.3 62.7 62.7 0 0 0 2.45 6.52q1.42 3.25 3.05 6.3a25.42 25.42 0 0 0 3.66 4.67 12.98 12.98 0 0 0 4.88 3.05 4.98 4.98 0 0 1 1.43.6 11.74 11.74 0 0 0 4.67 1.43q2.45.2 5.1.2a9.07 9.07 0 0 0 3.65-.7 25.87 25.87 0 0 0 3.24-1.74l.82-.62a13.63 13.63 0 0 1 2.34-2.85 32 32 0 0 0 2.54-2.64l.6-.83.62-2.64a10 10 0 0 0 1.22-1.43 3.65 3.65 0 0 1 1.02-1 6 6 0 0 0 2.64-4.88 5.55 5.55 0 0 0 3.86-3.86 1.28 1.28 0 0 0-.92-.4c-.34 0-.5-.28-.5-.83a8.2 8.2 0 0 1 1.83-2.33zm-57.14-3.36a6.88 6.88 0 0 1-.6 4.47.6.6 0 0 0-.42-.18c-.14 0-.2-.14-.2-.4l.82-10.8a2.9 2.9 0 0 1 .6 2.65 8.82 8.82 0 0 0-.2 4.27zm53.9.5a18.48 18.48 0 0 1-2.34-4.26 19.77 19.77 0 0 1-1.22-4.88 15.92 15.92 0 0 1 .1-4.78.9.9 0 0 1 1.22.2 3.4 3.4 0 0 0 2.84.4c.82 0 1.6-.03 2.34-.1s1.53-.16 2.34-.3l2.85-2.04q2.02-1.62 3.85-3.25a9.18 9.18 0 0 0 2.65-4.27 3.54 3.54 0 0 1 .4-1.02 29.27 29.27 0 0 0 2.75-4.57q1.12-2.34 2.14-4.58a11.54 11.54 0 0 0 .7-1.23 2.4 2.4 0 0 0 .3-1.02 3.63 3.63 0 0 1-.1-2.23c.2-.68.45-1.36.72-2.04a7.7 7.7 0 0 0 .4-2.44 14.7 14.7 0 0 1 .2-2.44 5.65 5.65 0 0 1-1.12-2.95A4.7 4.7 0 0 0 94.38 42a4.1 4.1 0 0 0-1.02-1.32 15.25 15.25 0 0 0-1.22-.9 3.16 3.16 0 0 0-2.44-.2 7.33 7.33 0 0 1-1.93.5q-.9.1-1.93.3a9.1 9.1 0 0 0-6.7 3.66l-3.27 4.27a37.02 37.02 0 0 0-2.84 4.08q-2.45 3.87-5.1 8.75a1.85 1.85 0 0 0-.5 1 3.08 3.08 0 0 1-.5 1.24q-.6 1.83-1.12 3.76t-.9 3.76a26.36 26.36 0 0 0-.82 4.26q-.2 2.04-.2 4.27a20.22 20.22 0 0 0 1.73 7.43 30.35 30.35 0 0 0 3.97 6.4 1.5 1.5 0 0 0 .5.6 5.2 5.2 0 0 1 .72.62 16.24 16.24 0 0 0 4.67 3.06 29.92 29.92 0 0 0 5.3 1.62 5.02 5.02 0 0 0 2.83 0 32.45 32.45 0 0 0 3.87-1.42 13.64 13.64 0 0 0 3.46-2.24A57.06 57.06 0 0 0 95 91.43a32.16 32.16 0 0 0 3.46-4.68l7.52-12.6a33.91 33.91 0 0 0 1.43-3.26 10.18 10.18 0 0 1 1.84-3.06l.4-1.43a7.77 7.77 0 0 0 .3-1.3 5 5 0 0 1 .52-1.53 2.15 2.15 0 0 0-.2-1.22q-.4-.4-.82.8a22.43 22.43 0 0 0-1.72 3.37q-.72 1.73-1.53 3.35a.18.18 0 0 1-.2-.2 3 3 0 0 1-.3-2.24c.2-.67.43-1.35.7-2.03l1.83-2.85 4.07-8.74a8 8 0 0 0 1.22-3.15q.2-1.52.4-4.37a1.4 1.4 0 0 0-1.62-.2l-1.22 1.83-3.88 7.33-3.05 6.1a6.32 6.32 0 0 1-1.12 1.83 2.34 2.34 0 0 0-.5 2.03.33.33 0 0 1-.2.3 1.1 1.1 0 0 0-.4.5 2.4 2.4 0 0 1-.42.6.83.83 0 0 0-.2.62 7.9 7.9 0 0 1-1.3 2.85 7.86 7.86 0 0 0-1.34 2.85 1.75 1.75 0 0 1-.6 1 2.67 2.67 0 0 0-1.23 1.23q-.4.82-.8 1.63a10.37 10.37 0 0 0-1.13 1.32 11.4 11.4 0 0 0-.9 1.53l-3.47 5.08a19.32 19.32 0 0 1-1.33 1.95 10.46 10.46 0 0 1-1.73 1.73l-3.66 3.25a10.95 10.95 0 0 1-6.1 3.66 8.2 8.2 0 0 1-3.25-2.75zm-3.06-18.6a27.85 27.85 0 0 1 1.12-4.27q.7-2.03 1.52-4.27a26.57 26.57 0 0 1 3.16-6q1.93-2.75 4.17-5.6a16.04 16.04 0 0 1 1.83-1.93q1-.9 2.03-1.93a14.85 14.85 0 0 1 1.73-1.83c.6-.53 1.26-1.08 1.94-1.62a1.5 1.5 0 0 0 .4.3 1.14 1.14 0 0 1 .4.5v1.03a3.92 3.92 0 0 1 .72 2.96 23.47 23.47 0 0 1-.92 2.95q-1.42 2.86-2.94 5.5T83.2 65a44.05 44.05 0 0 1-2.64 3.55q-1.43 1.73-3.06 3.35a8.58 8.58 0 0 1-4.68 3.05.7.7 0 0 1-.6.1 1.44 1.44 0 0 0-.62-.1 1.05 1.05 0 0 1-.2-1.02zm72-42.3a4.48 4.48 0 0 0-.8-1.63q-.62-1.4-3.27-2.43a6.87 6.87 0 0 0-4.07-.6 1.92 1.92 0 0 0-1.62 2.02 3.22 3.22 0 0 0 .1.8 3.4 3.4 0 0 1 .1.82 3.44 3.44 0 0 1 1.72 1.73q.92 1.53 1.53 1.53a21.45 21.45 0 0 1 .3 2.64q.1 1.63.1 3.36c0 1.15.03 2.27.1 3.35s.1 1.9.1 2.44a1.62 1.62 0 0 1-.2 1.02 54.36 54.36 0 0 0-1.33 5.8 15.7 15.7 0 0 1-2.13 5.58 4.44 4.44 0 0 0-.6 1.43 4.57 4.57 0 0 1-.62 1.43 36.37 36.37 0 0 0-2.75 5.4 16.83 16.83 0 0 1-3.15 4.97.6.6 0 0 0-.4.5 1.66 1.66 0 0 1-.2.72 24.68 24.68 0 0 1-5.3 6.3q-1.63 1.63-2.64-.6a19.9 19.9 0 0 1-1.02-6.72 37.88 37.88 0 0 1 .4-5.6q.42-2.74 1.03-5.38 1-3.46 1.82-6.92a34.9 34.9 0 0 1 2.44-6.9l-.6-2.65a10.66 10.66 0 0 0-5.3-2.45 1.82 1.82 0 0 0-1.83.82 1.17 1.17 0 0 0-.4.8L112.47 52c-.27 1.08-.5 2.23-.7 3.46a18.4 18.4 0 0 1-.92 3.45 3.13 3.13 0 0 0-.2 1.82 18.57 18.57 0 0 1-.2 4.78 27.97 27.97 0 0 0-.4 4.78 12.73 12.73 0 0 0 2.23 8.75 4.62 4.62 0 0 0 2.22 2.03l5.7 2.65a11.5 11.5 0 0 0 2.64.82 5.57 5.57 0 0 0 2.85-.4 25.87 25.87 0 0 0 4.9-4.48l3.86-6.1a71.2 71.2 0 0 0 3.66-6.6q1.62-3.36 3.25-6.82.6-1.42 1.22-2.85a20.14 20.14 0 0 0 1-3.06q.4-2.63.7-5.18a19.07 19.07 0 0 0-.1-5.18zm30.1 35.08a6.26 6.26 0 0 0-.4.7l-4.28 7.13q-.6 1.02-2.34 3.66t-3.76 5.7q-2.03 3.05-3.86 5.8t-2.44 3.56c-.28.68-.6.8-1.02.4a1.12 1.12 0 0 1-.4-.6q-.2-4.28-.2-8.44a45 45 0 0 1 .8-8.45 110.95 110.95 0 0 1 2.75-12.7 85.63 85.63 0 0 1 4.37-12.1 43.5 43.5 0 0 0 2.85-6.52 2.3 2.3 0 0 0-.8-2.64 16.13 16.13 0 0 0-4.7-2.84 1.88 1.88 0 0 0-2.63.6 35.58 35.58 0 0 0-1.43 3.78q-.6 1.93-1.2 3.76-.82 2.24-1.64 4.17a19.82 19.82 0 0 0-1.22 4.17 13.34 13.34 0 0 1-1.42 3.86 6.93 6.93 0 0 0-.8 4.07 9.5 9.5 0 0 1 .9 1.12c.34.47.64.9.92 1.3q-.2 1.64-.3 3.06a18.2 18.2 0 0 1-.52 3.05q-.4 2.45-.8 4.9a21.17 21.17 0 0 0-.2 5.08v2.44a7.12 7.12 0 0 1-.2 2.03 3.82 3.82 0 0 1-.42-2.03v-3.05a25.24 25.24 0 0 1 .2-3.05c0-1.1-.03-2.07-.1-2.95a9.36 9.36 0 0 1 .3-2.95c.28 0 .2-.2-.2-.6h-.2c-.26 0-.4-.08-.4-.2a8.23 8.23 0 0 0-.3 2.83 6.03 6.03 0 0 1-.5 2.85.94.94 0 0 0-.1.7 2.2 2.2 0 0 1 .1.73 2.3 2.3 0 0 0 .1.7.9.9 0 0 1-.1.72 16 16 0 0 0-.32 3.97q.1 1.93.1 3.96a22.38 22.38 0 0 0 2.04 9.36l2.44 1.62a16.1 16.1 0 0 0 2.95 1.33 6.87 6.87 0 0 0 3.57.1 8.54 8.54 0 0 0 3.25-2.45q1.02-1.63 1.73-3.05a31.5 31.5 0 0 0 1.32-3.06 22.77 22.77 0 0 1 1.63-3.55q1.42-2.76 2.95-5.8t2.64-5.8q1.1-2.76.9-3.57l1.84-6.3c.13-.54-.2-.95-1.02-1.22a6.78 6.78 0 0 1-.42.72zm-1.63-46.47a8.14 8.14 0 0 0-1.62-.6 5.24 5.24 0 0 0-1.94-.42 3.17 3.17 0 0 0-1.92.82q-.8 2.85-1.83 5.7a15.77 15.77 0 0 0-.8 6.3q1 1.42 2.02.8a8.02 8.02 0 0 1 3.26-1.2 1.25 1.25 0 0 0 .7-.2 6.9 6.9 0 0 1 .72-.42A7.98 7.98 0 0 0 173 28.6a32.45 32.45 0 0 0 1.72-3.06 3.1 3.1 0 0 0 .2-2.44 4.32 4.32 0 0 0-1.42-2.04q-.8-.4-1.63-.82zM149.5 91.63V89.4h.2v2.44a.18.18 0 0 1-.2-.2zM223.33 54l-3.26 4.07q-1.63 2.65-3.25 5.2t-3.25 5.38a40.06 40.06 0 0 1-2.75 4.68q-1.52 2.24-3.15 4.47l-.82.4a2.8 2.8 0 0 1-.6-2.02 30.72 30.72 0 0 1 .4-5.1q.4-2.43 1.02-4.87.4-2.63 1-5.18t1.03-5.18a10.85 10.85 0 0 0-.2-4.68c-.27-.54-.5-1.02-.7-1.42a2.4 2.4 0 0 0-1.33-1.02l-4.27-1.83a8.8 8.8 0 0 0-3.77 1.1 36.93 36.93 0 0 0-3.15 2.14 28.43 28.43 0 0 0-2.85 2.85q-1.22 1.4-2.44 3.04l-1.63 2.03-2.24 2.85-2.85 3.87a1.18 1.18 0 0 1-.8.2 6.12 6.12 0 0 1 .2-1.84q.8-2.24 1.4-4.58a28.3 28.3 0 0 1 1.64-4.58q1.22-3.25 2.54-6.4t2.75-6.2a5 5 0 0 0-1.52-3.56 7.27 7.27 0 0 0-3.15-1.53 10.96 10.96 0 0 0-4.07.42 33.75 33.75 0 0 0-1.63 4.27q-.6 2.03-1.22 4.26l-2.83 11.4q-1.02 4.06-1.84 7.92t-1.42 7.94a23.03 23.03 0 0 0-.5 3.66q-.1 1.83-.3 3.66l3.66 2.44a5.52 5.52 0 0 0 4.47.6l1.63-1.82a7.74 7.74 0 0 0 1.42-2.04l4.9-8.95a78.03 78.03 0 0 1 4.46-7.1 40.85 40.85 0 0 1 5.5-6.3 6.84 6.84 0 0 1 1.62-1.03v1.63a33.68 33.68 0 0 1-.6 6.4q-.62 3.16-1.03 6.4a29.9 29.9 0 0 0-.1 4.28 32.67 32.67 0 0 0 .5 4.27 3.7 3.7 0 0 0 2.25 3.05q.8.4 1.52.82a13.38 13.38 0 0 0 1.73.8 4.92 4.92 0 0 0 1.63.5q.8.1 1.83.3 3.04.62 4.46-2.83 1.02-2.24 1.83-4.27t1.62-4.28a6.88 6.88 0 0 1 .5-1.42 9.43 9.43 0 0 0 .52-1.22 13.28 13.28 0 0 1 2.03-4.68 21.14 21.14 0 0 0 2.54-5.3q.93-2.83 1.74-5.68v-.82zm-47.2 17.9l-.4-.2.62-3.05a6.7 6.7 0 0 1 .4 1.63 4.9 4.9 0 0 1-.6 1.62zm180.6-62.85a34.9 34.9 0 0 0-3.24-2.03 15.23 15.23 0 0 0-3.67-1.12q-1.83-.3-3.66-.7a30.3 30.3 0 0 0-16.88 2.03.9.9 0 0 0-1.03 1l.82 1.03 2.22-.6a9.1 9.1 0 0 1 4.48-1.03h4.37c1.43 0 2.88.07 4.38.2a1.84 1.84 0 0 1 .8.2c.28.14.55.28.82.4a34.34 34.34 0 0 1 5.9 3.88 19.14 19.14 0 0 1 .82 3.06 11.7 11.7 0 0 1 .7 3.45 22.4 22.4 0 0 1-.1 3.67l-.4 2.04a25 25 0 0 1-.52 5.1q-.5 2.43-1.12 4.87a3.4 3.4 0 0 1-.2 1.02 3.34 3.34 0 0 0-.2 1 16.52 16.52 0 0 1-.7 3.36q-.52 1.53-.92 3.16l-.82 2.23a68.72 68.72 0 0 1-1.52 6.72q-.92 3.25-1.93 6.7-.82 2.25-1.43 4.48a29.7 29.7 0 0 1-1.62 4.48 63.33 63.33 0 0 0-2.45 6.5 36.7 36.7 0 0 1-2.64 6.3 29 29 0 0 1-2.85 6.82q-1.83 3.16-3.45 6.6a18.4 18.4 0 0 1-1.63 2.45 19.15 19.15 0 0 1-3.05 3.46 2.08 2.08 0 0 1-2.85.2 7.83 7.83 0 0 1-2.24-2.44A33.96 33.96 0 0 1 317.7 90a50.85 50.85 0 0 1-1.42-7.83q-.4-3.97-.8-7.83a15.7 15.7 0 0 1-.3-3.97q.1-1.93.3-3.97a52.86 52.86 0 0 1 1-8.03 77.96 77.96 0 0 1 2.04-7.83 7.2 7.2 0 0 0 .4-5.3 3.27 3.27 0 0 0-3.04-1 2.98 2.98 0 0 1-2.44.2 2.46 2.46 0 0 0-1.63.2 3.8 3.8 0 0 0-2.63 3.25 4.04 4.04 0 0 1-.4 1.82q-.42.82-.82 1.83l-1.22 3.05q-1.02 2.65-1.94 5.1t-1.94 5.07q-1.22 3.46-2.54 6.7a70.66 70.66 0 0 0-2.34 6.73 46.48 46.48 0 0 1-2.44 6.5q-1.43 3.06-2.65 6.1-1.03 2.25-2.04 4.48t-2.03 4.47l-2.44 3.46a1.4 1.4 0 0 1-1.44.42 9.38 9.38 0 0 1-1.32-3.26c-.2-1.08-.37-2.16-.5-3.25q-.2-4.06-.1-8.23t.5-8.24a103.66 103.66 0 0 1 2.65-14.43q1.82-7.12 4.05-14.24 1.02-3.05 2.14-6.1t2.33-6.1a42.73 42.73 0 0 1 2.34-5.4 23.32 23.32 0 0 1 3.56-4.97v-2.85a2.57 2.57 0 0 0-1.43-1.83q-1.02-.4-2.03-.8a5.3 5.3 0 0 0-4.68 1.2 15.38 15.38 0 0 0-2.35 3.56q-.9 1.94-1.73 3.97-1.02 3.05-2.13 6.1t-2.35 6.1q-1.22 3.87-2.34 7.53t-2.14 7.52a10.84 10.84 0 0 0-.6 2.14 3.78 3.78 0 0 0 .2 2.13c.26.27.2.6-.2 1.02a5.02 5.02 0 0 0-1.33 2.94 18.22 18.22 0 0 1-.5 3.15q-.2 1-.32 1.82a12.73 12.73 0 0 0-.1 1.63 6.8 6.8 0 0 1-.4 3.25 2.82 2.82 0 0 0-.2 1.22 31.2 31.2 0 0 1-1 7.53 2.94 2.94 0 0 1 1 2.04 10.52 10.52 0 0 1-.2 2.02 14.68 14.68 0 0 0-.3 1.53 3.4 3.4 0 0 0 .3 1.72 1.68 1.68 0 0 1 .1 1.02 6.16 6.16 0 0 0-.1 1v1.43l.8 5.1q.4 3.24 2.86 4.26a31.37 31.37 0 0 0 4.17 1.72 7.38 7.38 0 0 0 4.37.1 12.34 12.34 0 0 0 3.66-1.33 6.9 6.9 0 0 0 2.65-2.75l.62-1.02a7.86 7.86 0 0 0 2.85-4.06l3.66-8.95 5.08-12.6.83-.62q.4 1.22.8 2.84l.42 2.44q.6 4.48 1.83 9.56a17.24 17.24 0 0 0 2.64 5.9 18.13 18.13 0 0 0 1.42 2.04 4.27 4.27 0 0 0 2.04 1.42 37.62 37.62 0 0 0 5.4 1.63 16.43 16.43 0 0 0 5.8.2 12.9 12.9 0 0 0 10.16-7.12 14.04 14.04 0 0 0 1.62-2.94q.6-1.52 1.43-3.15l3.24-5.48a18.45 18.45 0 0 1 1.02-2.44 8.58 8.58 0 0 0 .8-2.65 2.2 2.2 0 0 1 .1-.7 2.27 2.27 0 0 0 .1-.72q1.03-2.84 1.94-5.38t1.94-5.4q.4-1 .8-1.82t.82-1.84l3.05-9.55 1.64-6.3 4.07-16.27a12.66 12.66 0 0 0 .42-3.05 12.55 12.55 0 0 1 .4-3.05 19.93 19.93 0 0 0 .3-4.47 33.94 33.94 0 0 0-.5-4.48 9.63 9.63 0 0 0-4.27-7.52zm.93 18.3a3.26 3.26 0 0 0-.1.82 14.67 14.67 0 0 1-1.02 5.3 21.72 21.72 0 0 0-.6 2.73q-.2 1.33-.62 2.95-.6 2.24-1.12 4.47a23.34 23.34 0 0 1-1.52 4.48 1.6 1.6 0 0 0-.2 1.02 8.55 8.55 0 0 1-.72 3.45 18.54 18.54 0 0 0-1.1 3.46l-1.44 4.07a8.2 8.2 0 0 1-.7 2.03 8 8 0 0 0-.72 2.04 2.27 2.27 0 0 1-1.22 2.23 4.32 4.32 0 0 1-.1-1.62 2.82 2.82 0 0 0-.3-1.63.87.87 0 0 1 .4-.7c.27-.2.27-.45 0-.72a1.17 1.17 0 0 1-.2-1.12 3 3 0 0 0 .2-1.1c.13-.28.27-.55.4-.83a1.82 1.82 0 0 0 .2-.8 3.62 3.62 0 0 0 .4-1.64 2.25 2.25 0 0 0 1.03.2 2.4 2.4 0 0 0 .72-1.42 14.97 14.97 0 0 0 .1-1.82 3.22 3.22 0 0 1-.3-2.34q.3-1.1.5-2.14a2.4 2.4 0 0 1 2.04-2.23l1.22-4.27a3.72 3.72 0 0 1-.5-2.75 5.62 5.62 0 0 0 .1-2.34 13.78 13.78 0 0 1 .8-1.72 3.03 3.03 0 0 0 .4-1.52 1.28 1.28 0 0 1 .72-1.33 1.28 1.28 0 0 0 .7-1.32l.83-3.04.6-3.25a4.47 4.47 0 0 0 .1-1.62 4.33 4.33 0 0 1 .1-1.63V18.4a10.52 10.52 0 0 1 .1-1.5 12.74 12.74 0 0 0 .1-1.74l.62.6.6 2.86v3.96a20.26 20.26 0 0 1-.4 3.97 3.36 3.36 0 0 1-.1.8zm-14.34 45.57a.96.96 0 0 1-.6-1.42c.13-.27.3-.58.5-.92s.37-.64.5-.9l.42-1.44a1.3 1.3 0 0 1 1.22-.8 1.38 1.38 0 0 0 1.22-.62 7.5 7.5 0 0 1-.1 1.22 2.32 2.32 0 0 1-.7 1.22zm-39.86-1.83v-.62a2.2 2.2 0 0 1 .1-.7 2.27 2.27 0 0 0 .1-.72 8.35 8.35 0 0 0 1.42-.4v2.43h-1.62zm108.4-3.26a13 13 0 0 0-.8 1.42l-1.03 2.64a2.44 2.44 0 0 1-1.63 1.83 3.5 3.5 0 0 0-1.83 2.44l-1.62 6.1a36.05 36.05 0 0 1-3.36 9.36q-2.35 4.47-4.6 8.74a1.86 1.86 0 0 1-1.2 1.43 1.2 1.2 0 0 1-1.02.6 5.65 5.65 0 0 0-.2-1.52c-.14-.47-.28-.9-.4-1.32a43.64 43.64 0 0 1 .4-11.8q.4-2.44.9-4.78t1.13-4.58a29.16 29.16 0 0 0 .62-3.15 27.9 27.9 0 0 1 .6-3.15 43.23 43.23 0 0 0 1.64-5.8q.6-2.95 1.22-5.8a13.03 13.03 0 0 0 .4-3.15V54.2a4.95 4.95 0 0 0-.2-1.3q-.2-.72-.4-1.54a4.3 4.3 0 0 0-2.85-2.44l-1.63-.8a4.15 4.15 0 0 0-2.85.2 8.86 8.86 0 0 0-3.25 1.4q-1.43 1.03-2.85 2.25-3.46 3.87-6.9 8.13a2.26 2.26 0 0 1-1.03.2q.4-2.44.9-5.5a33.18 33.18 0 0 1 1.13-4.87c.14 0 .17-.06.1-.2a.33.33 0 0 1 .1-.4q.4-1.02.82-2.14t.8-2.15q.62-2.23 1.13-4.37t.9-4.37a39 39 0 0 1 1.54-4.47 15.77 15.77 0 0 0 1.12-4.67q-.4-.2 0-.6 1-2.86 1.73-5.7t1.5-5.7l.2-2.04a2.48 2.48 0 0 0-.6-1.83 5.7 5.7 0 0 0-2.54-2.04 24.8 24.8 0 0 0-3.15-1.02 2.2 2.2 0 0 0-2.43 1.83l-.2 1.22-2.24 10.37q.4 1.63.5 2.13a6.36 6.36 0 0 1-.3 2.14q-.4 2.24-.8 4.58a27.14 27.14 0 0 1-1.23 4.57l-.2 1.62 1.22 1.42a13.1 13.1 0 0 1-1.63 5.1 14.57 14.57 0 0 0-.92 3.04 19.34 19.34 0 0 1-.92 3.25v1.33a3.43 3.43 0 0 1-.4 1.52 25.64 25.64 0 0 0-1.43 5.2 38.76 38.76 0 0 1-1.22 5.17q-.4 2.04-.8 3.77a28.3 28.3 0 0 0-.6 3.76q-.42 2.64-.83 5.18a22.04 22.04 0 0 1-1.42 5l-1.02 2.22c0 .28-.27.4-.8.4a5.7 5.7 0 0 1 .5-3.14 20.2 20.2 0 0 0 1.12-2.95l-1.22-2.25q-.8 2.85-1.53 5.8a18.96 18.96 0 0 0-.5 5.8l.8.82-1.2 1-.62 5.9v.62a.83.83 0 0 0 1 .6 1.33 1.33 0 0 1 1.03 0l1.84 1.83 2.44.6a1.2 1.2 0 0 0 1.63-.8 28.98 28.98 0 0 1 1.53-5.9 28.78 28.78 0 0 0 1.53-6.3 70.8 70.8 0 0 1 3.86-9.06 94.22 94.22 0 0 1 4.88-8.44l3.87-5.7a24.53 24.53 0 0 0 1.83-2.03 8.88 8.88 0 0 1 2.03-1.83c.54 0 .95.48 1.22 1.42a2.7 2.7 0 0 1-.3 1.2 1.54 1.54 0 0 0-.1 1.23 7.1 7.1 0 0 1-.1 2.65q-.3 1.42-.5 2.84l-.82 1.43a.6.6 0 0 1-.4.2 1.14 1.14 0 0 0-.62.4 3.64 3.64 0 0 1 .42 1.63 5.6 5.6 0 0 0 2.04 1.22 2.54 2.54 0 0 1 .1 1.22 7.18 7.18 0 0 0-.1 1.22l-1.84 9.97q-.4 2.25-.9 4.38a10.5 10.5 0 0 0-.1 4.37.73.73 0 0 1 0 1.02l-.2 6.7-.82-1-.4-.6c-.15 0-.2-.05-.2-.1s-.08-.1-.2-.1a.57.57 0 0 1-.42-.2l-.4 1c-.14 0-.2.14-.2.4a15.36 15.36 0 0 1 1.1 2.35 7.65 7.65 0 0 1 .52 2.74 3 3 0 0 0 1.43 2.04c.4.27.88.6 1.42 1a4.42 4.42 0 0 0 1.83.83l4.47.6a14.8 14.8 0 0 0 6.1-7.1q.4-1.03.82-2.15a12.46 12.46 0 0 1 1-2.13 9.26 9.26 0 0 0 1.23-6.1 4.1 4.1 0 0 1-.2-1.32 1.5 1.5 0 0 1 .4-1.12q.62-1.62 1.13-3.14a11 11 0 0 1 1.53-2.95q1-1.62 1.83-3.15t1.6-3.15a22.14 22.14 0 0 0-.1-2.34 5.46 5.46 0 0 1 .1-1.83 20.5 20.5 0 0 1 .62-2.14q.4-1.23 1.02-3.46a1.94 1.94 0 0 0-2.03-1.02 8 8 0 0 0-1.04 1.22zm-25.22 18.7a.4.4 0 0 0 .1.3.43.43 0 0 1 .1.32l.2-.2c.13-.27.27-.54.4-.8a.87.87 0 0 0 0-.83 1.1 1.1 0 0 0-.8 1.22zm48.2-19.82a6.26 6.26 0 0 0-.4.7l-4.28 7.13q-.6 1.02-2.34 3.66t-3.76 5.7q-2.03 3.05-3.86 5.8t-2.44 3.56c-.27.68-.6.8-1.02.4a1.12 1.12 0 0 1-.4-.6q-.2-4.28-.2-8.44a44.9 44.9 0 0 1 .8-8.45 110.95 110.95 0 0 1 2.76-12.7 85.75 85.75 0 0 1 4.37-12.1 43.4 43.4 0 0 0 2.85-6.52 2.28 2.28 0 0 0-.82-2.64 16.1 16.1 0 0 0-4.68-2.84 1.88 1.88 0 0 0-2.64.6 35.58 35.58 0 0 0-1.42 3.78q-.6 1.93-1.22 3.76-.82 2.24-1.63 4.17a19.82 19.82 0 0 0-1.2 4.17 13.34 13.34 0 0 1-1.43 3.86 6.92 6.92 0 0 0-.82 4.07 9.5 9.5 0 0 1 .92 1.12c.33.47.64.9.9 1.3q-.2 1.64-.3 3.06a18.2 18.2 0 0 1-.5 3.05q-.4 2.45-.8 4.9a21.18 21.18 0 0 0-.2 5.08v2.44a7.08 7.08 0 0 1-.2 2.03 3.82 3.82 0 0 1-.42-2.03v-3.05a25.05 25.05 0 0 1 .2-3.05c0-1.1-.03-2.07-.1-2.95a9.36 9.36 0 0 1 .3-2.95c.28 0 .2-.2-.2-.6h-.2c-.27 0-.4-.08-.4-.2a8.23 8.23 0 0 0-.3 2.83 6.02 6.02 0 0 1-.52 2.85.95.95 0 0 0-.1.7 2.2 2.2 0 0 1 .1.73 2.27 2.27 0 0 0 .1.7.9.9 0 0 1-.1.72 16 16 0 0 0-.3 3.97q.1 1.93.1 3.96a22.34 22.34 0 0 0 2.03 9.36l2.44 1.62a16.1 16.1 0 0 0 2.95 1.33 6.87 6.87 0 0 0 3.56.1 8.55 8.55 0 0 0 3.27-2.45q1-1.63 1.72-3.05a31.74 31.74 0 0 0 1.32-3.06 22.67 22.67 0 0 1 1.62-3.55q1.42-2.76 2.95-5.8t2.64-5.8q1.1-2.76.9-3.57l1.84-6.3c.14-.54-.2-.95-1-1.22a7.16 7.16 0 0 1-.44.72zm-1.63-46.48a8.16 8.16 0 0 0-1.6-.6 5.24 5.24 0 0 0-1.95-.4 3.17 3.17 0 0 0-1.93.8q-.8 2.85-1.83 5.7a15.8 15.8 0 0 0-.82 6.3q1 1.43 2.03.82a8.03 8.03 0 0 1 3.26-1.22 1.25 1.25 0 0 0 .72-.2 7.1 7.1 0 0 1 .7-.4 7.97 7.97 0 0 0 2.55-2.45 32 32 0 0 0 1.73-3.06 3.1 3.1 0 0 0 .2-2.44 4.33 4.33 0 0 0-1.42-2.04q-.8-.4-1.62-.82zm-22.36 71.4V89.4h.2v2.44a.18.18 0 0 1-.2-.2zm44.24-61.33a.42.42 0 0 0 .1-.3l.4-1.2a35.66 35.66 0 0 0 3.16-6.2q1.32-3.37 2.95-6.62l1.4-2.65a2.7 2.7 0 0 1 .32-1.22 9.44 9.44 0 0 0 .5-1.2 4.02 4.02 0 0 0 .1-2.35 5.1 5.1 0 0 0-1.72-1.73l-2.85-1.63a2.8 2.8 0 0 0-3.45.4q-1.02 2.65-2.03 5.2t-2.04 5.38a10.55 10.55 0 0 0-.6 2.23 10.93 10.93 0 0 1-.62 2.25l-1.82 4.68v.4l1.42 1.43-2.64 6.9-1.02 2.86a47.28 47.28 0 0 1-1.83 5.9.72.72 0 0 1-.8.8.9.9 0 0 1-.7.1 2.3 2.3 0 0 0-.72-.1 23.5 23.5 0 0 1-1.73 2.15 16.42 16.42 0 0 1-2.55 1.73 8.46 8.46 0 0 1-5.08 2.44 1.2 1.2 0 0 0-.62 1.02 1.7 1.7 0 0 0 .1.5 1.62 1.62 0 0 1 .1.52l3.26 1.22a3.93 3.93 0 0 0 2.44.6 7.87 7.87 0 0 0 2.85.4q-.4 2.05-.6 3.78a10.17 10.17 0 0 1-1.03 3.35 3.48 3.48 0 0 0-.2 1.43l.2 1a4.52 4.52 0 0 0-.8 3.88 10 10 0 0 1-.32 2.44q-.3 1.22-.7 2.44l-2.04 1.22-.2 1.83a7.25 7.25 0 0 0-.2 3.86 30.15 30.15 0 0 0 2.23 7.32 5.2 5.2 0 0 0 2.43 2.65 11.43 11.43 0 0 1 2.24 1.02q1.02.6 2.04 1.22a7.32 7.32 0 0 0 6.92.2 9.43 9.43 0 0 0 2.44-1.63l2.14-2.13a10.44 10.44 0 0 0 1.93-2.74 3.08 3.08 0 0 1 1.42-1.63 11.5 11.5 0 0 0 1.63-2.54q.6-1.32 1.22-2.75a1.85 1.85 0 0 0-.4-2.02l-.82-1.02 1.02-2.44 2.44-5.7a6.27 6.27 0 0 0 .8-2.44l1.43-7.1-.4-.2c-.14 0-.2.02-.2.1s-.07.1-.2.1h-.2q-1.83 2.84-3.46 5.68a29.3 29.3 0 0 0-2.64 6.3l-.6 1.63q-1.22 2.23-2.45 4.06a28.73 28.73 0 0 0-2.22 4.06 25.05 25.05 0 0 1-2.24 3.05q-1.22 1.43-2.44 2.85a5.88 5.88 0 0 1-3.87 2.44 3.2 3.2 0 0 1-1.63-2.23 41.18 41.18 0 0 1-1.42-7.02 17.5 17.5 0 0 1 .6-7 64.7 64.7 0 0 0 1.23-6.7 37.07 37.07 0 0 1 1.43-6.52l2.44-8.54 2.44-1.84a31.7 31.7 0 0 1 5.3-3.45 6.72 6.72 0 0 0 3.25-4.07l1.02-2.24 3.46-2.44a1.75 1.75 0 0 0 .6-1.02 20.22 20.22 0 0 0-6.1 2.04 17.62 17.62 0 0 0-3.14 1.12q-1.54.7-3.37 1.73a33.62 33.62 0 0 1 1.32-3.97q.7-1.73 1.33-3.36l.6-1.62a.4.4 0 0 1 .1-.3zm54.1 35a1.9 1.9 0 0 0-.7-1.94 1.72 1.72 0 0 1-1.03-.6q0-.2-1.02.8A11.46 11.46 0 0 1 505 64.7a13.48 13.48 0 0 1-1.4.92 1.08 1.08 0 0 0-.83 1.32 4.7 4.7 0 0 1 0 1.93l-2.64 2.85a3.53 3.53 0 0 0-1.02 1.73c-.13.6-.26 1.25-.4 1.93a1.6 1.6 0 0 1-.2 1.02q-1.2 2.24-2.44 4.27a13.8 13.8 0 0 1-3.25 3.66.6.6 0 0 1-.4.2 1.58 1.58 0 0 0-.6.2 9.6 9.6 0 0 1-.3-3.04 13.58 13.58 0 0 0-.1-2.85 11.36 11.36 0 0 1 0-3.04 29.34 29.34 0 0 1 .6-3.05q1.42-5.68 3.25-11.07t4.07-10.68a9.9 9.9 0 0 0 .6-5.1 23.9 23.9 0 0 1-3.04-5.48 3 3 0 0 0-1.42-1.83 6.46 6.46 0 0 0-4.48-2.24 24.17 24.17 0 0 0-3.15.2 14.47 14.47 0 0 0-3.15.82 6.35 6.35 0 0 0-4.07 3.25 2.58 2.58 0 0 1-1.2 1.42 13.94 13.94 0 0 0-3.37 3.25q-1.32 1.83-2.95 3.86a.6.6 0 0 1-.2.42q-2.24 2.85-4.07 5.7t-3.65 5.9a41.06 41.06 0 0 0-2.74 5.8q-1.1 2.94-2.13 5.8a15.05 15.05 0 0 0-1 6.1c0 .67.02 1.42.1 2.23s.1 1.56.1 2.24a10.04 10.04 0 0 0 4.87 7.72l1.22.6a8.25 8.25 0 0 0 8.95.4 1.38 1.38 0 0 1 1.02-.4 6.03 6.03 0 0 0 2.85-1.62 21 21 0 0 0 2.24-2.65l1.23-2.23 1.83-2.65a.6.6 0 0 1 .4-.2 1.56 1.56 0 0 0 .62-.2 17.32 17.32 0 0 1 .4 2.85 3.57 3.57 0 0 0 1.83 2.64 1.8 1.8 0 0 0 1.03.5 3.18 3.18 0 0 1 1.22.52 5.92 5.92 0 0 0 1.12.6c.34.15.7.28 1.12.42a3.23 3.23 0 0 0 .4 1.42 19.65 19.65 0 0 1 3.05-1.02 4.6 4.6 0 0 0 2.44-1.42l2.02-2.85a13.66 13.66 0 0 1 2.24-2.84 6.42 6.42 0 0 0 1.62-2.45 10.9 10.9 0 0 0 .5-2.65q.1-1.42.32-2.85a7.96 7.96 0 0 1 1.02-2.84 2.68 2.68 0 0 1 1-1.2q.82-.62 1.54-1.23a6.2 6.2 0 0 0 1.12-1.22 1.02 1.02 0 0 0 0-1.22 15.73 15.73 0 0 1 .5-1.94zm-20.03-14.95l-.82 1.62-3.86 8.54-1.22 3.68a11.3 11.3 0 0 1-1.02 2.64 5.16 5.16 0 0 0-1.63 2.85q-.8 1.83-1.83 3.66t-2.03 3.46q-1.02 1.82-2.03 3.65t-2.03 3.66a7.02 7.02 0 0 1-2.03 2.55 12.62 12.62 0 0 0-2.44 2.54 6.56 6.56 0 0 1-1.32-2.24q-.3-1.02-.72-2.04a19.7 19.7 0 0 1-.1-6.6 38.93 38.93 0 0 1 1.53-6.2q1-2.25 2.23-4.38t2.44-4.37l4.67-6.92a38.92 38.92 0 0 1 3.56-4.58q1.93-2.13 3.97-4.16a21.82 21.82 0 0 1 1.63-1.82 22.24 22.24 0 0 0 1.62-1.84 6.42 6.42 0 0 1 1.63-1.22.82.82 0 0 1 1.02.82 6.3 6.3 0 0 1 0 2.23zm-6.92 19.32a.25.25 0 0 1 0-.4 1.17 1.17 0 0 1 .4-.82c.4 0 .62.13.62.4a.87.87 0 0 1 0 .82.4.4 0 0 1-.6.2.58.58 0 0 1-.42-.2zm67.73 1q-1.02 1.03-2.04 2.25l-3.25 3.66-3.66 4.27c-.54.68-1.08 1.33-1.62 1.94s-1.1 1.24-1.63 1.92a8.5 8.5 0 0 1-1.62 1.93 16.04 16.04 0 0 0-1.83 1.93 41.84 41.84 0 0 1-3.46 3.46 21.8 21.8 0 0 1-4.07 2.85 7.7 7.7 0 0 1-1.32-1.74 16.37 16.37 0 0 1-.92-1.94l-2.23-3.25a5.03 5.03 0 0 0-1.53-1.63 3.44 3.44 0 0 1-1.32-1.62 10.16 10.16 0 0 1 1.02-.6 8.3 8.3 0 0 1 1-.42 18.3 18.3 0 0 0 3.27-1.83 22.8 22.8 0 0 0 2.84-2.44l5.9-5.7a7.4 7.4 0 0 0 2.14-2.23 23.9 23.9 0 0 0 1.32-2.65 5.8 5.8 0 0 0 .2-3.96 10.45 10.45 0 0 0-2.03-3.37 7.24 7.24 0 0 0-7.93-2.03q-1.42.6-2.74 1.22a17 17 0 0 0-2.75 1.62 4.56 4.56 0 0 0-1.42 1.12 8.9 8.9 0 0 1-1.42 1.32 1.1 1.1 0 0 0-.5.4 1.63 1.63 0 0 1-.3.42l-2.45 1.42c0-.13-.05-.2-.1-.2s-.1-.06-.1-.2q1-4.47 1.82-8.95t1.62-8.95a.33.33 0 0 1 .2-.3.33.33 0 0 0 .2-.3 2.5 2.5 0 0 1 2.24.8 2.44 2.44 0 0 0 2.44.62 12.67 12.67 0 0 0 8.54-4.07L541 35.9a15.84 15.84 0 0 0 2.14-2.63q.92-1.42 1.93-2.85a36.9 36.9 0 0 0 4.68-7.83 32.2 32.2 0 0 0 2.44-8.86 12.13 12.13 0 0 0-1.43-7.32 8.65 8.65 0 0 0-5.5-4.88 10.1 10.1 0 0 0-9.75 1.42 31.7 31.7 0 0 0-6.3 5.9 105.38 105.38 0 0 0-11 18.1q-1.82 4.08-3.34 8.04t-2.75 8.24a16.3 16.3 0 0 1-.5 1.93 3.7 3.7 0 0 0-.1 1.93l.6.6a4.82 4.82 0 0 1 .82-3.04 14.92 14.92 0 0 0 1.52-3.15q.5-1.52 1.12-3.15a34.1 34.1 0 0 1 3.24-7.52 4.45 4.45 0 0 0 .82-1.63 10.92 10.92 0 0 1 1.42-3.46q1.02-1.62 1.83-3.25h.83a2.13 2.13 0 0 1-.2 1.2l-1.23 3.06a55.16 55.16 0 0 0-2.54 5.4 53.7 53.7 0 0 0-1.93 5.58 3.63 3.63 0 0 1-.6 1.12 1.12 1.12 0 0 0-.2 1.12 2.53 2.53 0 0 1-.3 1.32 4.66 4.66 0 0 1-.72.92l-.6 1.63v1.42a7.63 7.63 0 0 0-.4 2.44 3.12 3.12 0 0 1-1.02 2.25 6 6 0 0 0-.3 2.44 3.65 3.65 0 0 1-.52 2.23v1a2.18 2.18 0 0 0 .1.73.95.95 0 0 1-.1.7 6.95 6.95 0 0 0-.7 2.65q-.12 1.44-.32 2.86a3.03 3.03 0 0 1-.2 1.12c-.13.34-.27.64-.4.9a14.24 14.24 0 0 0-1.02 2.05 2.63 2.63 0 0 0 0 2.03 1.42 1.42 0 0 1 .1.92 4.57 4.57 0 0 0-.1.9 14.4 14.4 0 0 1-1.02 2.35 4.82 4.82 0 0 0-.6 2.34 5.9 5.9 0 0 0-1.13 2.13 18.9 18.9 0 0 1-.7 2.14 20.57 20.57 0 0 1-1.23 1.83 7.02 7.02 0 0 1-1.42 1.43l-1.42-.6c-.14.4-.27.77-.4 1.1s-.28.65-.42.92q-.8 2.85-1.52 5.6t-1.33 5.6a1.63 1.63 0 0 0-.2 1 1.46 1.46 0 0 0 1.02 2.04 10.44 10.44 0 0 1 3.66 3.05l.2.2a1.5 1.5 0 0 0 1.33.2 1.28 1.28 0 0 0 .92-1 12.23 12.23 0 0 0 1.02-3.47 29.1 29.1 0 0 1 1.52-4.27q.9-2.03 1.92-4.07l.82-.82H516a4.76 4.76 0 0 1 1.44 1.73q.4.92.8 1.94c.42.68.8 1.32 1.13 1.93a2.9 2.9 0 0 0 1.52 1.33 50.5 50.5 0 0 0 6.7 4.27 4.1 4.1 0 0 0 2.65.8 7.63 7.63 0 0 0 5.9-2.43q2.23-2.44 4.27-4.88t4.07-4.88a15.42 15.42 0 0 0 4.05-7.93 3.95 3.95 0 0 1 .82-2.04.93.93 0 0 0 .2-1 .92.92 0 0 1 .2-1.02 6.5 6.5 0 0 0 1.52-2.44 17.74 17.74 0 0 1 1.32-2.85 1.83 1.83 0 0 0 0-2.04 14.96 14.96 0 0 0-2.66 2.02zm-24.82-40.26a61.58 61.58 0 0 1 6.5-11.17q1.23-1.83 2.55-3.76a24.86 24.86 0 0 1 2.94-3.56 13.4 13.4 0 0 1 1.63-1.72q.8-.7 1.83-1.53l2.85-2.03 1.22-.4a3.47 3.47 0 0 1 .7 1.62 15.05 15.05 0 0 1 .1 1.83 24.23 24.23 0 0 1-.6 4.57 24.37 24.37 0 0 1-1.22 4.38 9.15 9.15 0 0 1-1.63 3.25 8.65 8.65 0 0 0-2.23 3.66 36.27 36.27 0 0 1-3.27 4.68q-4.68 5.3-9.35 9.98a20.75 20.75 0 0 1-2.24 1.93q-1.22.92-2.44 1.94a1.26 1.26 0 0 1-.92.4 4.64 4.64 0 0 0-1.52.4l.4-2.43a128.52 128.52 0 0 1 4.68-12zM514.36 82.3a39.2 39.2 0 0 1 15.46-17.1.4.4 0 0 0 .1.32.42.42 0 0 1 .1.3 16.03 16.03 0 0 1-1.83 4.68 32.2 32.2 0 0 1-6.52 7.53q-1.63 1.23-3.15 2.35t-3.15 2.13a1.05 1.05 0 0 1-1.02-.2zm-4.27-26.85a3.97 3.97 0 0 0-.92 2.14 7.66 7.66 0 0 1-.5 2.13l-2.45 9.36-.6 2.85a5.83 5.83 0 0 1-.62 1.53 1.53 1.53 0 0 0 0 1.52.98.98 0 0 1-.2 1.33 1.23 1.23 0 0 0-.2 1.52l2.24-2.23q.2-1.02.3-1.94a16.96 16.96 0 0 0 .1-1.93q.2-1.83.5-3.66a9.37 9.37 0 0 1 1.34-3.46 1.27 1.27 0 0 0 .4-.9 3.56 3.56 0 0 1 .2-1.13l1.02-4.68-.6-2.44v-.2h-.2zm2.13-4.98c.06-.34-.17-.58-.7-.72a2.4 2.4 0 0 0-1.03 2.24c.95.28 1.42.07 1.42-.6a3.8 3.8 0 0 0 .3-.92zm14.34-34.38a5.26 5.26 0 0 0 1-1.1 3.68 3.68 0 0 1-2.02 3.24v-.8a4.06 4.06 0 0 1 1.02-1.32zM510.3 53.8a.72.72 0 0 0-.3.7 2.3 2.3 0 0 1 .1.72q1 .6 1.22-.2.4-1-1.02-1.22zm36.8-41.08a2.42 2.42 0 0 1 .42-2.45zm7.54 79.82a18.44 18.44 0 0 1-2.34-4.27 19.8 19.8 0 0 1-1.22-4.88 15.94 15.94 0 0 1 .1-4.8.9.9 0 0 1 1.22.2 3.4 3.4 0 0 0 2.85.42c.8 0 1.6-.03 2.33-.1s1.53-.17 2.34-.3l2.85-2.04q2.03-1.63 3.86-3.25a9.17 9.17 0 0 0 2.65-4.27 3.55 3.55 0 0 1 .4-1.02 29.27 29.27 0 0 0 2.75-4.58q1.12-2.33 2.14-4.57a11.5 11.5 0 0 0 .7-1.23 2.38 2.38 0 0 0 .3-1.02 3.63 3.63 0 0 1-.1-2.24c.2-.66.45-1.34.73-2.02a7.7 7.7 0 0 0 .4-2.44 14.67 14.67 0 0 1 .2-2.44 5.65 5.65 0 0 1-1.12-2.95 4.7 4.7 0 0 0-1.12-2.75 4.13 4.13 0 0 0-1-1.32 15.26 15.26 0 0 0-1.23-.92 3.16 3.16 0 0 0-2.44-.2 7.33 7.33 0 0 1-1.95.5q-.9.12-1.93.32a9.1 9.1 0 0 0-6.7 3.66l-3.27 4.27a37.07 37.07 0 0 0-2.84 4.08q-2.43 3.86-5.08 8.74a1.85 1.85 0 0 0-.5 1.02 3.08 3.08 0 0 1-.5 1.22q-.62 1.83-1.13 3.76t-.93 3.77a26.48 26.48 0 0 0-.8 4.26q-.2 2.03-.2 4.27a20.2 20.2 0 0 0 1.72 7.42 30.36 30.36 0 0 0 3.95 6.4 1.5 1.5 0 0 0 .5.62 5.26 5.26 0 0 1 .72.6 16.22 16.22 0 0 0 4.68 3.06 29.9 29.9 0 0 0 5.3 1.63 5.02 5.02 0 0 0 2.84 0 32.42 32.42 0 0 0 3.85-1.43 13.63 13.63 0 0 0 3.46-2.23 57.3 57.3 0 0 0 4.08-4.07 32.2 32.2 0 0 0 3.45-4.68l7.53-12.6a33.9 33.9 0 0 0 1.42-3.26 10.18 10.18 0 0 1 1.83-3.06l.42-1.43a7.96 7.96 0 0 0 .3-1.3 4.96 4.96 0 0 1 .5-1.54 2.15 2.15 0 0 0-.2-1.22q-.4-.4-.8.82a22.43 22.43 0 0 0-1.73 3.35q-.72 1.74-1.53 3.37a.18.18 0 0 1-.2-.2 3 3 0 0 1-.3-2.24c.2-.67.43-1.35.7-2.03l1.83-2.85 4.07-8.74a8.02 8.02 0 0 0 1.22-3.15q.2-1.52.4-4.37a1.4 1.4 0 0 0-1.63-.2l-1.22 1.83-3.86 7.33-3.07 6.1a6.32 6.32 0 0 1-1.1 1.83 2.34 2.34 0 0 0-.52 2.04.33.33 0 0 1-.2.3 1.1 1.1 0 0 0-.4.5 2.37 2.37 0 0 1-.4.62.83.83 0 0 0-.2.6 7.9 7.9 0 0 1-1.33 2.86 7.86 7.86 0 0 0-1.32 2.84 1.75 1.75 0 0 1-.6 1.02 2.67 2.67 0 0 0-1.23 1.22q-.4.8-.8 1.63a10.37 10.37 0 0 0-1.13 1.3 11.4 11.4 0 0 0-.93 1.53l-3.47 5.1a19.29 19.29 0 0 1-1.32 1.92 10.46 10.46 0 0 1-1.73 1.73L564 91.63a10.95 10.95 0 0 1-6.1 3.66 8.18 8.18 0 0 1-3.27-2.75zm-3.05-18.6a27.92 27.92 0 0 1 1.1-4.28q.72-2.03 1.53-4.27a26.55 26.55 0 0 1 3.15-6q1.93-2.75 4.17-5.6a16.02 16.02 0 0 1 1.83-1.93q1.02-.92 2.04-1.93a14.85 14.85 0 0 1 1.73-1.84c.6-.54 1.25-1.08 1.93-1.62a1.5 1.5 0 0 0 .4.3 1.15 1.15 0 0 1 .4.5v1.03a3.9 3.9 0 0 1 .72 2.96 23.4 23.4 0 0 1-.9 2.95q-1.44 2.86-2.96 5.5t-3.36 5.3a43.93 43.93 0 0 1-2.64 3.54q-1.43 1.73-3.05 3.36a8.58 8.58 0 0 1-4.7 3.05.7.7 0 0 1-.6.1 1.44 1.44 0 0 0-.6-.1 1.05 1.05 0 0 1-.2-1.02zM589 83.7l5.7 2.64a1.73 1.73 0 0 0 2.03-.4l.6-2.24q.82-3.46 1.54-6.7t1.32-6.72a74.4 74.4 0 0 1 2.43-8.95 47 47 0 0 1 1.83-4.68q1-2.24 2.03-4.68a21.32 21.32 0 0 1 1.92-3.46q1.12-1.6 2.14-3.24a6.7 6.7 0 0 1 2.24-2.64 23.7 23.7 0 0 1 .2 2.84 7.6 7.6 0 0 0 .4 2.44 6.04 6.04 0 0 0 2.85 4.68 9.55 9.55 0 0 0 2.44.92q1.82.5 3.86.9t3.86.83q1.83.4 2.44.6a1.5 1.5 0 0 0 .7-.9 3.6 3.6 0 0 1 .32-.92l-1.83-2.23a9 9 0 0 1-5-3.76 13.17 13.17 0 0 1-1.82-5.5 16.26 16.26 0 0 1 .3-5.48 9.3 9.3 0 0 1 1.63-3.76 2.58 2.58 0 0 0 .2-2.24 3.26 3.26 0 0 0-1.42-1.83 7 7 0 0 0-2.44-1.23 6.25 6.25 0 0 0-4.9 2.04l-3.85 3.26a14.07 14.07 0 0 0-1.63 1.83 9.32 9.32 0 0 0-.6 1q-.2.42-.52 1.23a10.82 10.82 0 0 1-1.32 2.24L604.65 42l-.82.62a.8.8 0 0 1-.6-.82 14.4 14.4 0 0 0 .3-1.62 3.23 3.23 0 0 1 .5-1.43q.6-2.44-1.83-4.07a11.56 11.56 0 0 0-2.54-1.62 4.88 4.88 0 0 0-3.15-.2l-.8 1.22q-.42 2.64-.82 4.98t-.8 4.78a3.1 3.1 0 0 0 1.2-.4 3 3 0 0 1 0 2.64 1.73 1.73 0 0 1-1.2-1.83 10.78 10.78 0 0 0-.2 2.44 3.12 3.12 0 0 1-.42 1.2 5.04 5.04 0 0 0-.4 2.24 1.8 1.8 0 0 0-.2.82l-.82 4.27q-.6 3.86-1.32 7.52t-1.12 7.33a1.37 1.37 0 0 1-.1.6 1.43 1.43 0 0 0-.1.62 3.46 3.46 0 0 0 1-.4 3 3 0 0 1 0 2.63 2.42 2.42 0 0 1-1.2-1.42 10 10 0 0 0-.2 1.94v4.58a1.95 1.95 0 0 0-.62-1.43c-.4.67-.47 1.08-.2 1.2a7.35 7.35 0 0 1 0 2.45 13.9 13.9 0 0 0-.2 2.24.73.73 0 0 0-.1.6.88.88 0 0 1 .1.4.52.52 0 0 0 .5.1.82.82 0 0 1 .52-.1v-.4zm3.56-10.07a.52.52 0 0 1-.5-.1.89.89 0 0 0-.1-.4.74.74 0 0 1 .1-.6 13.65 13.65 0 0 1 .2-2.25 7.46 7.46 0 0 0 0-2.44q-.4-.2.2-1.22a5.28 5.28 0 0 1 .8 3.46 31.3 31.3 0 0 0-.2 3.45.8.8 0 0 0-.5.1zm.7-12.5a.83.83 0 0 1-.6.2h-.6a.83.83 0 0 0 .2-.62.87.87 0 0 1 .8-.8l.6.6v.2l.83-.4a3.02 3.02 0 0 1 0 2.65 1.73 1.73 0 0 1-1.23-1.83zm1.43-2.24l-.4-.2a17.27 17.27 0 0 0 .6-2.35 7.08 7.08 0 0 1 .6-1.93 7.55 7.55 0 0 1 .1 2.13 5 5 0 0 1-.7 2.14.18.18 0 0 1-.2.2zm.8-16.9l-.4-.2a17.41 17.41 0 0 0 .6-2.33 7.08 7.08 0 0 1 .62-1.93 7.5 7.5 0 0 1 .1 2.13 5 5 0 0 1-.7 2.14.18.18 0 0 1-.2.2zm-4.87 27.46l-.4-.2a16.56 16.56 0 0 0 .6-2.34 7.3 7.3 0 0 1 .6-1.93 7.3 7.3 0 0 1 .1 2.13 4.96 4.96 0 0 1-.7 2.13.18.18 0 0 1-.2.2zm1.02-8.33a.98.98 0 0 1 0 1.42.98.98 0 0 1 0-1.42zm4.07-10.58a.98.98 0 0 1 0 1.42.98.98 0 0 1 0-1.42zm.8-16.88a.98.98 0 0 1 0 1.42.98.98 0 0 1 0-1.43zm-2.63 22.37a3.25 3.25 0 0 1 .1-.8 3.36 3.36 0 0 0 .1-.83 1.92 1.92 0 0 1-.2 1.64zm-4.6 15.76a.43.43 0 0 0-.1.3v-.8h.2a.78.78 0 0 1-.1.5z" class="cls-1"/></svg>