<svg xmlns="http://www.w3.org/2000/svg" width="74.727" height="55.396" viewBox="0 0 19.772 14.657"><g aria-label="Kevin Whitaker"><g aria-label="KW" style="line-height:1.25;-inkscape-font-specification:'Fusterd Brush'" stroke-width=".07" font-weight="400" font-size="25.4" font-family="Fusterd Brush" letter-spacing="0" word-spacing="0" fill="#fff"><path d="M9.315 11.468q0 .097.048.097.073 0 .12.048-.12.364-.457.461 0 .34-.312.582-.073.049-.12.122-.049.072-.145.17l-.072.315-.073.097q-.144.17-.313.315-.144.146-.264.34l-.097.073q-.192.121-.385.194-.192.097-.433.097-.313 0-.602-.024-.289-.025-.553-.17-.024-.025-.169-.073-.337-.121-.577-.364-.241-.243-.434-.558-.192-.364-.36-.752-.17-.388-.29-.776-.12-.364-.168-.752-.048-.388-.072-.777-.024-.242-.024-.46v-.486q-.024-.121-.024-.388-.097 0-.145.024l-.24.17q-.049.194-.073.388 0 .17-.024.364-.024.267-.024.534.024.243-.024.51.024.12.024.242v.218q.048.219.024.437 0 .194.048.412v.097q.024.025 0 .073-.072.122-.072.243l.048.242q.073.364 0 .704-.096 0-.12-.024-.24-.122-.41-.461-.216-.51-.288-1.043-.048-.364-.072-.728l-.048-.752v-.17q-.12-.024-.193.024-.048.049-.144.097h-.434q-.216-.024-.457.025 0-.049-.024-.073v-.049-.048q.024-.025.024-.073l.626-1.262q.313-.63.674-1.261.096-.194.168-.291.097-.219.145-.437.144-.558.265-1.092.12-.558.312-1.116.145-.412.265-.8.12-.412.313-.8.12-.51.337-.971.217-.461.457-.922.048-.097.048-.145-.264.072-.457.242-.168.146-.36.291-.41.291-.723.655-.192.194-.361.388-.168.17-.337.364-.12.219-.265.413-.144.194-.264.412l-.241.437q-.096.218-.217.46-.289.22-.65.22-.096-.025-.144-.05-.072-.024-.12-.12.048-.22.12-.437.072-.243.192-.437.41-.85 1.06-1.553.096-.121.168-.218.072-.097.193-.194.288-.218.53-.437.264-.242.577-.436.53-.316 1.059-.461.553-.17 1.18-.146.023 0 .071.049l-.24.072-.12.097.312.122q.145.097.193.17.12.17.048.315l-.144.291q-.049.121-.145.243-.265.363-.457.752-.169.364-.337.776l-.554 1.48v.097q.048.073.072.073.025-.025.073-.049.048-.048.096-.145l.144-.195q.073-.12.193-.194.048-.024.072-.048.024-.049.072-.097.169-.243.361-.413l.434-.34q.096-.072.24-.266.12-.146.241-.267.144-.121.313-.243.217-.145.41-.29.216-.146.456-.268.29-.17.602-.266.313-.097.65-.073.048 0 .072.024.048 0 .12.024l-.096.194-.072.219-.168.121q-.41.17-.747.413-.337.242-.674.509-.312.218-.553.485l-.506.51-.337.388-.36.364q-.025.024-.025.048-.409.534-.842 1.068-.41.509-.77 1.067-.072.121-.145.218-.048.097-.072.219 0 .048-.024.097 0 .024.048.073.145 0 .265-.073.144-.073.265-.122.289 0 .601.122.145.097.169.194.12.34.096.63l-.072 1.505q0 .17.024.34.024.145.024.339 0 .267.048.534.048.242.12.51.097.266.17.509.095.242.216.485.072.194.192.364.12.17.24.315.073.097.145.146.097.072.193.12.313.146.554-.023.264-.17.457-.389.192-.194.385-.412.385-.412.698-.85.072-.096.12-.193.072-.097.12-.218.17-.292.338-.413l.048.218q0 .025.024.025t.024-.025q.048-.024.048-.072l.048-.097-.192-.073.048-.097.577-.8q0 .024.073-.05.048.05.048.098 0 .121-.072.267-.145.12-.193.17-.048.048-.096.17.216-.074.313-.34.072 0 .144.024t.12.121q-.024.194-.168.34-.145.121-.217.267zm-6.522-1.19q.048-.145-.073-.314l-.096 1.285q0 .049.024.049t.048.024q.12-.218.072-.534-.048-.29.025-.51z"/><path d="M19.065 1.788q.048.267.048.534.024.267-.024.534-.048.194-.048.363 0 .17-.048.364l-.481 1.941-.193.752-.361 1.14q-.048.122-.096.219t-.097.218q-.12.34-.24.655-.097.291-.217.63 0 .05-.024.098v.073q-.024.17-.096.315-.072.145-.12.291l-.386.655q-.096.194-.168.388-.072.17-.193.34-.409.752-1.203.849-.361.048-.698-.024-.313-.073-.626-.194-.144-.049-.24-.17-.097-.122-.17-.243-.24-.364-.312-.703-.144-.607-.217-1.14l-.048-.292q-.048-.194-.096-.34l-.096.073-.602 1.505-.433 1.067q-.12.34-.337.485l-.073.121q-.12.219-.312.34-.193.097-.434.146-.264.072-.53 0-.24-.097-.48-.219-.29-.12-.338-.51l-.096-.606v-.17-.12q.024-.073 0-.122-.048-.121-.048-.194l.048-.194q.024-.121.024-.243 0-.121-.12-.242.12-.486.12-.898 0-.097.024-.146.073-.194.048-.388v-.194q.025-.097.049-.218.048-.194.048-.364.024-.194.168-.364.072-.073.024-.121-.048-.121-.024-.243.024-.145.072-.267.12-.46.241-.897.145-.437.289-.898.144-.364.265-.728.144-.364.264-.727.097-.243.193-.461.12-.243.289-.437.289-.218.553-.146l.241.097q.12.049.169.219v.34q-.265.29-.434.606-.144.291-.264.63l-.29.728-.24.728q-.265.85-.481 1.698-.217.85-.313 1.723-.048.485-.072.995 0 .485.024.97l.048.388q.048.194.168.388.097.024.169-.048l.289-.413.24-.533.241-.534q.144-.364.313-.728.168-.364.289-.776.12-.413.264-.8.169-.389.313-.801.12-.316.217-.607.12-.291.24-.606l.145-.364q.048-.122.096-.219.049-.097.049-.218.024-.267.312-.388.12-.049.193-.024.168.048.289-.025.168-.048.36.122.097.315-.047.63-.145.461-.241.947-.096.46-.12.946l-.048.485q0 .218.048.46.048.462.096.947.048.46.168.922.145.485.386.897.12.194.264.292.193.12.337-.025.193-.17.361-.412.145-.194.193-.291.192-.413.409-.777.217-.388.337-.824.193-.364.313-.752.12-.389.289-.777.12-.267.192-.533.072-.267.169-.534.12-.413.216-.8.12-.389.193-.801l.096-.267q.048-.194.096-.364.073-.194.097-.412 0-.049.024-.122t.024-.121q.072-.291.12-.582.072-.291.072-.607l.049-.242q.024-.219 0-.437 0-.218-.073-.412-.048-.243-.096-.364-.289-.243-.698-.461l-.096-.049q-.048-.024-.096-.024-.265-.024-.53-.024h-.505q-.313 0-.53.121l-.265.073-.096-.122q0-.12.12-.12.987-.413 1.998-.243l.433.097q.217.024.434.12.216.122.385.243.457.316.505.898zm-.385 1.189q.048-.243.048-.461V2.03l-.072-.34-.072-.073q0 .122-.024.219v.558q-.024.097-.024.194.024.097 0 .194l-.073.388-.096.364q0 .121-.096.17-.072.024-.072.145 0 .097-.048.194-.049.073-.097.194.024.122-.024.291-.024.146.072.316l-.144.51q-.193.024-.24.266-.025.121-.073.267-.024.121.048.267 0 .121-.024.218 0 .097-.072.17-.072 0-.12-.024 0 .097-.049.194 0 .048-.024.097l-.048.097q0 .073-.024.145-.024.049.024.122.048.048 0 .097-.048.024-.048.073.048.097.024.194 0 .097.024.194.145-.073.145-.267.024-.121.072-.243.072-.121.096-.242l.169-.486q.048-.218.12-.412.096-.194.096-.412 0-.097.024-.122.12-.267.169-.533l.144-.534q.048-.194.072-.34.024-.17.073-.34.12-.315.12-.63v-.097q.024-.049.024-.097zM17.26 8.07q.072-.072.072-.145.024-.073.024-.146-.048.073-.144.073-.096 0-.145.097l-.048.17q-.024.048-.072.121l-.048.097q-.048.121.072.17zm-4.814.219v-.291q-.144.048-.168.048 0 .049-.024.097v.146z"/></g></g></svg>